<svg width="22" height="22" viewBox="0 0 22 22" fill="none" xmlns="http://www.w3.org/2000/svg">
<path d="M7.44721 1H2.80513C1.80819 1 1 1.80809 1 2.80492V7.44645C1 8.44328 1.80819 9.25137 2.80513 9.25137H7.44721C8.44416 9.25137 9.25235 8.44328 9.25235 7.44645V2.80492C9.25235 1.80809 8.44416 1 7.44721 1Z" stroke="#ECEBEB" stroke-opacity="0.7" stroke-width="0.5" stroke-linecap="round" stroke-linejoin="round"/>
<path d="M19.1972 1H14.5551C13.5582 1 12.75 1.80809 12.75 2.80492V7.44645C12.75 8.44328 13.5582 9.25137 14.5551 9.25137H19.1972C20.1942 9.25137 21.0023 8.44328 21.0023 7.44645V2.80492C21.0023 1.80809 20.1942 1 19.1972 1Z" stroke="#ECEBEB" stroke-opacity="0.7" stroke-width="0.5" stroke-linecap="round" stroke-linejoin="round"/>
<path d="M7.44721 12.748H2.80513C1.80819 12.748 1 13.5561 1 14.553V19.1945C1 20.1913 1.80819 20.9994 2.80513 20.9994H7.44721C8.44416 20.9994 9.25235 20.1913 9.25235 19.1945V14.553C9.25235 13.5561 8.44416 12.748 7.44721 12.748Z" stroke="#ECEBEB" stroke-opacity="0.7" stroke-width="0.5" stroke-linecap="round" stroke-linejoin="round"/>
<path d="M19.1972 12.748H14.5551C13.5582 12.748 12.75 13.5561 12.75 14.553V19.1945C12.75 20.1913 13.5582 20.9994 14.5551 20.9994H19.1972C20.1942 20.9994 21.0023 20.1913 21.0023 19.1945V14.553C21.0023 13.5561 20.1942 12.748 19.1972 12.748Z" stroke="#ECEBEB" stroke-opacity="0.7" stroke-width="0.5" stroke-linecap="round" stroke-linejoin="round"/>
</svg>
