<svg width="18" height="18" viewBox="0 0 18 18" fill="none" xmlns="http://www.w3.org/2000/svg">
<path d="M4 0.250252C1.93625 0.250252 0.25 1.9365 0.25 4.00025V17.1253C0.25 17.291 0.315848 17.45 0.433058 17.5672C0.550268 17.6844 0.70924 17.7503 0.875 17.7503C1.04076 17.7503 1.19973 17.6844 1.31694 17.5672C1.43415 17.45 1.5 17.291 1.5 17.1253V4.00025C1.5 2.61213 2.61188 1.50025 4 1.50025H4.625C6.01312 1.50025 7.125 2.61213 7.125 4.00025V14.0003C7.125 16.064 8.81125 17.7503 10.875 17.7503H11.5C13.5638 17.7503 15.25 16.064 15.25 14.0003V2.384L16.6831 3.81713C16.8003 3.9343 16.9593 4.00012 17.125 4.00012C17.2907 4.00012 17.4497 3.9343 17.5669 3.81713C17.684 3.69992 17.7499 3.54098 17.7499 3.37525C17.7499 3.20952 17.684 3.05058 17.5669 2.93338L15.0669 0.433377C14.9543 0.320643 14.803 0.25514 14.6438 0.250252C14.5586 0.247835 14.4739 0.262832 14.3948 0.294322C14.3157 0.325812 14.2439 0.373131 14.1838 0.433377L11.6838 2.93338C11.5666 3.05058 11.5008 3.20952 11.5008 3.37525C11.5008 3.54098 11.5666 3.69992 11.6838 3.81713C11.801 3.9343 11.9599 4.00012 12.1256 4.00012C12.2914 4.00012 12.4503 3.9343 12.5675 3.81713L14 2.384V14.0003C14 15.3884 12.8881 16.5003 11.5 16.5003H10.875C9.4875 16.5003 8.375 15.3884 8.375 14.0003V4.00025C8.375 1.9365 6.68875 0.250252 4.625 0.250252H4Z" fill="#ECEBEB" fill-opacity="0.7"/>
</svg>
