<svg width="20" height="20" viewBox="0 0 20 20" fill="none" xmlns="http://www.w3.org/2000/svg">
<path d="M0.434938 0C0.319585 0 0.208957 0.0455313 0.127391 0.126577C0.0458238 0.207624 0 0.317546 0 0.432162V15.6875C0 15.8021 0.0458238 15.912 0.127391 15.9931C0.208957 16.0741 0.319585 16.1196 0.434938 16.1196H4.10843L4.74343 19.6444C4.7642 19.7569 4.82887 19.8567 4.92336 19.9221C5.01786 19.9875 5.13452 20.0132 5.24796 19.9935L16.3954 18.0056C16.4241 17.9996 16.4476 17.9849 16.4737 17.9745C16.4937 17.9667 16.5137 17.9624 16.5329 17.9512C16.5892 17.9204 16.6379 17.8776 16.6755 17.8258L19.9271 13.1784C19.9691 13.115 19.9931 13.0415 19.9967 12.9657C19.9985 12.9458 20.0002 12.9303 19.9985 12.9104C19.9985 12.8914 20.0019 12.8732 19.9985 12.8542L17.9986 1.78051C17.9776 1.66807 17.9129 1.56838 17.8185 1.50302C17.724 1.43766 17.6075 1.4119 17.4941 1.43132L16.2241 1.65691V0.432162C16.2241 0.317546 16.1782 0.207624 16.0967 0.126577C16.0151 0.0455313 15.9045 0 15.7891 0H0.434938ZM0.869876 0.864324H15.3533V1.81249L2.38172 4.12715C2.32558 4.13714 2.27198 4.15806 2.22399 4.18869C2.176 4.21932 2.13458 4.25906 2.10209 4.30564C2.0696 4.35221 2.04668 4.40471 2.03466 4.4601C2.02264 4.5155 2.02175 4.57271 2.03203 4.62846L3.95185 15.2553H0.869876V0.864324ZM17.2209 2.35961L19.0677 12.5828L15.529 13.2121C15.4156 13.2331 15.3151 13.2977 15.2494 13.3919C15.1836 13.486 15.1578 13.6022 15.1776 13.7151L15.8126 17.232L5.52371 19.067L2.9628 4.90072L17.2201 2.35874L17.2209 2.35961ZM18.6154 13.5396L16.5598 16.4775L16.1101 13.9874L18.6154 13.5396Z" fill="#ECEBEB" fill-opacity="0.7"/>
</svg>
