<svg width="20" height="20" viewBox="0 0 20 20" fill="none" xmlns="http://www.w3.org/2000/svg">
<path d="M13.3307 4.99935C13.3307 4.77834 13.2429 4.56637 13.0867 4.41009C12.9304 4.25381 12.7184 4.16602 12.4974 4.16602H2.4974C2.27638 4.16602 2.06442 4.25381 1.90814 4.41009C1.75186 4.56637 1.66406 4.77834 1.66406 4.99935C1.66406 5.22036 1.75186 5.43232 1.90814 5.5886C2.06442 5.74488 2.27638 5.83268 2.4974 5.83268H6.66406V14.9993C6.66406 15.2204 6.75186 15.4323 6.90814 15.5886C7.06442 15.7449 7.27638 15.8327 7.4974 15.8327C7.71841 15.8327 7.93037 15.7449 8.08665 15.5886C8.24293 15.4323 8.33073 15.2204 8.33073 14.9993V5.83268H12.4974C12.7184 5.83268 12.9304 5.74488 13.0867 5.5886C13.2429 5.43232 13.3307 5.22036 13.3307 4.99935ZM17.4974 9.16602H12.4974C12.2764 9.16602 12.0644 9.25381 11.9081 9.41009C11.7519 9.56637 11.6641 9.77834 11.6641 9.99935C11.6641 10.2204 11.7519 10.4323 11.9081 10.5886C12.0644 10.7449 12.2764 10.8327 12.4974 10.8327H14.1641V14.9993C14.1641 15.2204 14.2519 15.4323 14.4081 15.5886C14.5644 15.7449 14.7764 15.8327 14.9974 15.8327C15.2184 15.8327 15.4304 15.7449 15.5867 15.5886C15.7429 15.4323 15.8307 15.2204 15.8307 14.9993V10.8327H17.4974C17.7184 10.8327 17.9304 10.7449 18.0867 10.5886C18.2429 10.4323 18.3307 10.2204 18.3307 9.99935C18.3307 9.77834 18.2429 9.56637 18.0867 9.41009C17.9304 9.25381 17.7184 9.16602 17.4974 9.16602Z" fill="#ECEBEB" fill-opacity="0.7"/>
</svg>
