<svg width="18" height="18" viewBox="0 0 18 18" fill="none" xmlns="http://www.w3.org/2000/svg">
<path d="M8.9974 0.666992C4.41406 0.666992 0.664062 4.41699 0.664062 9.00033C0.664062 13.5837 4.41406 17.3337 8.9974 17.3337C13.5807 17.3337 17.3307 13.5837 17.3307 9.00033C17.3307 4.41699 13.5807 0.666992 8.9974 0.666992ZM13.1641 9.83366H9.83073V13.167C9.83073 13.5837 9.41406 14.0003 8.9974 14.0003C8.58073 14.0003 8.16406 13.5837 8.16406 13.167V9.83366H4.83073C4.41406 9.83366 3.9974 9.41699 3.9974 9.00033C3.9974 8.58366 4.41406 8.16699 4.83073 8.16699H8.16406V4.83366C8.16406 4.41699 8.58073 4.00033 8.9974 4.00033C9.41406 4.00033 9.83073 4.41699 9.83073 4.83366V8.16699H13.1641C13.5807 8.16699 13.9974 8.58366 13.9974 9.00033C13.9974 9.41699 13.5807 9.83366 13.1641 9.83366Z" fill="#C1C1C1"/>
</svg>
