<svg width="12" height="12" viewBox="0 0 12 12" fill="none" xmlns="http://www.w3.org/2000/svg">
<circle cx="6" cy="6" r="6" fill="#FA4F57"/>
<g clip-path="url(#clip0_1991_55115)">
<mask id="mask0_1991_55115" style="mask-type:luminance" maskUnits="userSpaceOnUse" x="4" y="2" width="4" height="8">
<path d="M4 2.66537H8V9.33203H4V2.66537Z" fill="white"/>
</mask>
<g mask="url(#mask0_1991_55115)">
<path d="M5.15878 9.15625C5.14074 9.15624 5.12301 9.1485 5.10728 9.13378C5.09156 9.11906 5.07837 9.09785 5.06897 9.07219C5.05958 9.04653 5.0543 9.01727 5.05364 8.98723C5.05297 8.95719 5.05696 8.92737 5.0652 8.90064L5.79836 6.52467H4.5272C4.50572 6.52469 4.48475 6.51376 4.4671 6.49334C4.44946 6.47292 4.43598 6.44399 4.42849 6.41043C4.42099 6.37688 4.41984 6.34031 4.42518 6.30563C4.43052 6.27095 4.4421 6.23982 4.45836 6.21643L6.77425 2.88309C6.79275 2.8564 6.81624 2.84128 6.8407 2.84033C6.86516 2.83939 6.88905 2.85266 6.90827 2.87789C6.9275 2.90312 6.94084 2.93871 6.94603 2.97856C6.95121 3.01841 6.9479 3.06002 6.93667 3.09625L6.20352 5.47204H7.47457C7.49604 5.47205 7.517 5.48301 7.53463 5.50345C7.55226 5.52388 7.56571 5.55281 7.57319 5.58636C7.58067 5.61991 7.58182 5.65646 7.57648 5.69113C7.57114 5.72579 7.55956 5.7569 7.54331 5.78029L5.22762 9.11362C5.20849 9.14114 5.18405 9.15627 5.15878 9.15625Z" fill="#F4900C"/>
</g>
</g>
<defs>
<clipPath id="clip0_1991_55115">
<rect width="4" height="6.66667" fill="white" transform="translate(4 2.66602)"/>
</clipPath>
</defs>
</svg>
