<svg width="16" height="16" viewBox="0 0 16 16" fill="none" xmlns="http://www.w3.org/2000/svg">
<g clip-path="url(#clip0_73_2494)">
<path d="M15.7207 15.0513H0.367188V15.8366H15.7207V15.0513Z" fill="#7F7575"/>
<path d="M15.1484 13.9395H0.939453V14.7248H15.1484V13.9395Z" fill="#7F7575"/>
<path d="M4.90664 1.65722L4.73828 1.37744L4.19383 1.70507L4.36219 1.98485L4.90664 1.65722Z" fill="#7F7575"/>
<path d="M3.95938 2.22656L3.79102 1.94678L1.2176 3.49536L1.38596 3.77514L3.95938 2.22656Z" fill="#7F7575"/>
<path d="M14.1525 3.1195L11.9473 1.79346L11.779 2.07329L13.9842 3.39933L14.1525 3.1195Z" fill="#7F7575"/>
<path d="M11.5297 1.54166L10.9473 1.19141L10.779 1.47124L11.3615 1.82149L11.5297 1.54166Z" fill="#7F7575"/>
<path d="M6.99805 3.54236H7.48588L7.24197 2.896L6.99805 3.54236Z" fill="#7F7575"/>
<path d="M6.01347 3.42666H5.62109V3.80485H6.01347C6.1415 3.80485 6.21882 3.73367 6.21882 3.61576C6.21882 3.51411 6.14756 3.42666 6.01347 3.42666ZM6.19236 3.0425C6.19236 2.94292 6.12317 2.86768 6.00327 2.86768H5.62109V3.21732H6.00327C6.12317 3.21732 6.19236 3.14621 6.19236 3.0425Z" fill="#7F7575"/>
<path d="M7.99848 0.163086L0.279297 4.80473H15.716L7.99848 0.163086ZM6.06767 4.01401H5.38256V2.65814H6.04934C6.29949 2.65814 6.43566 2.81264 6.43566 3.00364C6.43566 3.17241 6.3258 3.28824 6.19985 3.31471C6.34622 3.33703 6.46212 3.4814 6.46212 3.64602C6.46214 3.85744 6.32374 4.01401 6.06767 4.01401ZM7.65298 4.01401L7.55332 3.75174H6.93135L6.83169 4.01401H6.56127L7.09396 2.65814H7.39068L7.92336 4.01401H7.65298ZM9.24451 4.01401H9.01476L8.30733 3.04429V4.01401H8.06945V2.65814H8.31339L9.00663 3.59724V2.65814H9.24451V4.01401ZM9.89071 3.44075L9.77081 3.58098V4.01401H9.53293V2.65814H9.77081V3.30251L10.3014 2.65814H10.5961L10.0452 3.29638L10.6388 4.01401H10.3441L9.89071 3.44075Z" fill="#7F7575"/>
<path d="M3.74456 13.6129V7.02513H4.20497V6.26758H1.39844V7.02513H1.85721V13.6129H3.74456Z" fill="#7F7575"/>
<path d="M10.7364 13.6129V7.02513H11.1968V6.26758H8.38867V7.02513H8.84745V13.6129H10.7364Z" fill="#7F7575"/>
<path d="M14.2325 13.6129V7.02513H14.6913V6.26758H11.8848V7.02513H12.3435V13.6129H14.2325Z" fill="#7F7575"/>
<path d="M7.24033 13.6129V7.02513H7.70074V6.26758H4.89258V7.02513H5.35135V13.6129H7.24033Z" fill="#7F7575"/>
<path d="M15.1539 5.13135H0.863281V5.94114H15.1539V5.13135Z" fill="#7F7575"/>
</g>
<defs>
<clipPath id="clip0_73_2494">
<rect width="16" height="16" fill="white"/>
</clipPath>
</defs>
</svg>
