<svg width="18" height="25" viewBox="0 0 18 25" fill="none" xmlns="http://www.w3.org/2000/svg">
<path d="M17.6487 18.4827L16.1183 16.9517V11.0176C16.1183 7.37408 14.1727 4.32397 10.7797 3.51694V2.70991C10.7797 1.72485 9.98487 0.929688 9.0002 0.929688C8.01553 0.929688 7.22068 1.72485 7.22068 2.70991V3.51694C3.81586 4.32397 1.88211 7.36221 1.88211 11.0176V16.9517L0.351725 18.4827C-0.395674 19.2303 0.126319 20.5121 1.18217 20.5121H16.8064C17.8741 20.5121 18.3961 19.2303 17.6487 18.4827ZM13.7456 18.1385H4.25481V11.0176C4.25481 8.0743 6.0462 5.67694 9.0002 5.67694C11.9542 5.67694 13.7456 8.0743 13.7456 11.0176V18.1385ZM9.0002 24.0725C10.3052 24.0725 11.3729 23.0044 11.3729 21.6989H6.62751C6.62751 23.0044 7.68336 24.0725 9.0002 24.0725Z" fill="#7F7575"/>
</svg>
