<svg width="25" height="25" viewBox="0 0 25 25" fill="none" xmlns="http://www.w3.org/2000/svg">
<path d="M12.5 0C11.3494 0 10.4167 0.93274 10.4167 2.08333V10.4167H2.08333C0.93274 10.4167 0 11.3494 0 12.5C0 13.6506 0.93274 14.5833 2.08333 14.5833H10.4167V22.9167C10.4167 24.0673 11.3494 25 12.5 25C13.6506 25 14.5833 24.0673 14.5833 22.9167V14.5833H22.9167C24.0673 14.5833 25 13.6506 25 12.5C25 11.3494 24.0673 10.4167 22.9167 10.4167H14.5833V2.08333C14.5833 0.93274 13.6506 0 12.5 0Z" fill="#ECEBEB"/>
</svg>
