<svg width="14" height="15" viewBox="0 0 14 15" fill="none" xmlns="http://www.w3.org/2000/svg">
<path fill-rule="evenodd" clip-rule="evenodd" d="M1.16406 3.70866C1.16406 3.54758 1.29465 3.41699 1.45573 3.41699H12.5391C12.7001 3.41699 12.8307 3.54758 12.8307 3.70866C12.8307 3.86974 12.7001 4.00033 12.5391 4.00033H1.45573C1.29465 4.00033 1.16406 3.86974 1.16406 3.70866Z" fill="#ECEBEB" fill-opacity="0.7"/>
<path fill-rule="evenodd" clip-rule="evenodd" d="M3.20573 3.41699C3.36681 3.41699 3.4974 3.54758 3.4974 3.70866V12.4587C3.4974 12.9392 3.89181 13.3337 4.3724 13.3337H9.6224C10.103 13.3337 10.4974 12.9392 10.4974 12.4587V3.70866C10.4974 3.54758 10.628 3.41699 10.7891 3.41699C10.9501 3.41699 11.0807 3.54758 11.0807 3.70866V12.4587C11.0807 13.2614 10.4251 13.917 9.6224 13.917H4.3724C3.56965 13.917 2.91406 13.2614 2.91406 12.4587V3.70866C2.91406 3.54758 3.04465 3.41699 3.20573 3.41699Z" fill="#ECEBEB" fill-opacity="0.7"/>
<path fill-rule="evenodd" clip-rule="evenodd" d="M4.08594 2.54134C4.08594 1.73859 4.74152 1.08301 5.54427 1.08301H8.46094C9.26369 1.08301 9.91927 1.73859 9.91927 2.54134V3.70801C9.91927 3.86909 9.78869 3.99967 9.6276 3.99967C9.46652 3.99967 9.33594 3.86909 9.33594 3.70801V2.54134C9.33594 2.06076 8.94152 1.66634 8.46094 1.66634H5.54427C5.06369 1.66634 4.66927 2.06076 4.66927 2.54134V3.70801C4.66927 3.86909 4.53869 3.99967 4.3776 3.99967C4.21652 3.99967 4.08594 3.86909 4.08594 3.70801V2.54134Z" fill="#ECEBEB" fill-opacity="0.7"/>
<path fill-rule="evenodd" clip-rule="evenodd" d="M5.54167 5.75C5.70275 5.75 5.83333 5.88058 5.83333 6.04167V11.2917C5.83333 11.4527 5.70275 11.5833 5.54167 11.5833C5.38058 11.5833 5.25 11.4527 5.25 11.2917V6.04167C5.25 5.88058 5.38058 5.75 5.54167 5.75Z" fill="#ECEBEB" fill-opacity="0.7"/>
<path fill-rule="evenodd" clip-rule="evenodd" d="M8.45573 5.75C8.61681 5.75 8.7474 5.88058 8.7474 6.04167V11.2917C8.7474 11.4527 8.61681 11.5833 8.45573 11.5833C8.29465 11.5833 8.16406 11.4527 8.16406 11.2917V6.04167C8.16406 5.88058 8.29465 5.75 8.45573 5.75Z" fill="#ECEBEB" fill-opacity="0.7"/>
</svg>
