<svg width="335" height="332" viewBox="0 0 335 332" fill="none" xmlns="http://www.w3.org/2000/svg">
<path d="M211.569 1.26814C244.375 6.77052 273.593 25.7921 295.613 50.1559C317.327 74.1826 329.883 104.801 333.878 136.6C337.741 167.34 331.449 198.326 317.74 226.257C304.489 253.257 282.186 273.882 257.669 291.873C232.28 310.504 205.51 330.263 173.789 331.89C141.836 333.528 112.854 316.643 85.3348 300.71C57.7468 284.737 29.5941 267.496 14.6876 239.775C-0.371275 211.771 -3.00602 178.61 2.96102 147.525C8.67616 117.751 26.6402 92.3111 47.3285 69.7307C67.2439 47.9938 91.7934 32.0322 119.27 20.579C148.805 8.26755 179.917 -4.04066 211.569 1.26814Z" fill="#6842FF"/>
</svg>
