<svg width="315" height="345" viewBox="0 0 315 345" fill="none" xmlns="http://www.w3.org/2000/svg">
<path d="M198.938 1.3178C229.786 7.03563 257.259 26.802 277.964 52.1199C298.382 77.0873 310.188 108.904 313.945 141.949C317.577 173.893 311.661 206.092 298.771 235.117C286.31 263.173 265.34 284.606 242.286 303.302C218.413 322.662 193.241 343.195 163.414 344.885C133.368 346.588 106.116 329.041 80.2402 312.485C54.2992 295.887 27.8273 277.97 13.8107 249.164C-0.349109 220.063 -2.82656 185.604 2.78424 153.301C8.15818 122.362 25.0497 95.9256 44.5029 72.4611C63.2294 49.8731 86.3132 33.2865 112.149 21.3848C139.921 8.59128 169.176 -4.19888 198.938 1.3178Z" fill="#FF2C62"/>
</svg>
