<svg width="12" height="12" viewBox="0 0 12 12" fill="none" xmlns="http://www.w3.org/2000/svg">
<g clip-path="url(#clip0_1_64317)">
<path d="M6 0C4.81331 0 3.65328 0.351894 2.66658 1.01118C1.67989 1.67047 0.910851 2.60754 0.456726 3.7039C0.00259972 4.80026 -0.11622 6.00666 0.115291 7.17054C0.346802 8.33443 0.918247 9.40353 1.75736 10.2426C2.59648 11.0818 3.66558 11.6532 4.82946 11.8847C5.99335 12.1162 7.19975 11.9974 8.2961 11.5433C9.39246 11.0892 10.3295 10.3201 10.9888 9.33342C11.6481 8.34673 12 7.18669 12 6C11.9983 4.40923 11.3656 2.88411 10.2407 1.75926C9.1159 0.634414 7.59077 0.00172054 6 0ZM6 11C5.0111 11 4.0444 10.7068 3.22215 10.1573C2.39991 9.60794 1.75904 8.82705 1.38061 7.91342C1.00217 6.99979 0.90315 5.99445 1.09608 5.02455C1.289 4.05464 1.76521 3.16373 2.46447 2.46447C3.16373 1.7652 4.05465 1.289 5.02455 1.09607C5.99446 0.903148 6.99979 1.00216 7.91342 1.3806C8.82705 1.75904 9.60794 2.3999 10.1574 3.22215C10.7068 4.04439 11 5.01109 11 6C10.9985 7.32564 10.4713 8.59656 9.53393 9.53393C8.59656 10.4713 7.32564 10.9985 6 11Z" fill="#7F7575"/>
<path d="M8.7575 7.0715L6.5 5.717V3C6.5 2.86739 6.44732 2.74021 6.35355 2.64645C6.25979 2.55268 6.13261 2.5 6 2.5C5.86739 2.5 5.74021 2.55268 5.64645 2.64645C5.55268 2.74021 5.5 2.86739 5.5 3V6C5.50336 6.08558 5.52712 6.16911 5.5693 6.24365C5.61148 6.31818 5.67086 6.38156 5.7425 6.4285L8.2425 7.9285C8.2988 7.96373 8.36157 7.9874 8.42712 7.99811C8.49267 8.00882 8.5597 8.00636 8.62429 7.99088C8.68888 7.97539 8.74974 7.9472 8.80331 7.90793C8.85688 7.86867 8.9021 7.81912 8.93631 7.76219C8.97052 7.70526 8.99305 7.64208 9.00257 7.57635C9.0121 7.51061 9.00843 7.44364 8.99178 7.37934C8.97513 7.31504 8.94584 7.2547 8.90562 7.20184C8.86539 7.14899 8.81504 7.10468 8.7575 7.0715Z" fill="#7F7575"/>
</g>
<defs>
<clipPath id="clip0_1_64317">
<rect width="12" height="12" fill="white"/>
</clipPath>
</defs>
</svg>
