<svg width="18" height="19" viewBox="0 0 18 19" fill="none" xmlns="http://www.w3.org/2000/svg">
<path d="M13.2798 1.06339C15.4532 1.0842 17.4146 2.9682 17.436 5.21952C17.4452 8.08283 17.4628 10.9461 17.4356 13.8091C17.4015 15.962 15.5312 17.917 13.2798 17.9384C10.4165 17.9476 7.55322 17.9652 4.69028 17.938C2.53778 17.9039 0.582533 16.0336 0.56097 13.7823C0.55197 10.919 0.534158 8.05564 0.561345 5.1927C0.59547 3.03983 2.46578 1.08495 4.7171 1.06339C7.57141 1.05439 10.4255 1.05439 13.2798 1.06339ZM4.74503 2.18839C3.15878 2.19345 1.70191 3.55452 1.68597 5.22664C1.67697 8.08283 1.65897 10.939 1.68616 13.7948C1.7111 15.3666 3.07647 16.7976 4.72422 16.8134C7.58041 16.8226 10.4366 16.8402 13.2924 16.8132C14.8652 16.7881 16.2952 15.4229 16.311 13.7751C16.3202 10.919 16.3378 8.06277 16.3108 5.20695C16.2857 3.63439 14.9225 2.20414 13.2727 2.18839C10.4302 2.17939 7.58753 2.18839 4.74503 2.18839Z" fill="#7F7575"/>
<path d="M9.04805 3.39091C11.0972 3.42972 12.8772 5.42903 12.5851 7.51459C12.346 9.22009 10.7341 10.628 9.00136 10.628C6.91655 10.628 5.05355 8.52559 5.43924 6.36953C5.73099 4.73791 7.23849 3.42353 8.95468 3.39091C9.00136 3.39053 9.00136 3.39053 9.04805 3.39091ZM8.96911 4.51572C7.32118 4.54703 5.98205 6.48972 6.75343 8.08947C7.42936 9.49178 9.55486 9.92641 10.7213 8.81416C12.0848 7.51422 11.3639 4.56016 9.03361 4.51572C9.00136 4.51553 9.00136 4.51553 8.96911 4.51572ZM9.05724 11.3782C11.2752 11.4088 13.4123 12.7278 14.4002 14.7592C14.6082 15.1867 14.1874 15.7618 13.7071 15.5709C13.3506 15.4292 13.2539 14.9602 13.0253 14.6268C11.6455 12.6138 8.65599 11.9066 6.50836 13.1887C5.68224 13.6818 5.0123 14.4234 4.59474 15.2919C4.59474 15.2919 4.40311 15.5962 4.11474 15.6101C3.67374 15.6311 3.3938 15.1447 3.69774 14.5719C4.71699 12.65 6.82205 11.3681 9.05724 11.3782Z" fill="#7F7575"/>
</svg>
