<svg width="13" height="13" viewBox="0 0 13 13" fill="none" xmlns="http://www.w3.org/2000/svg">
<path d="M7.05749 6.49936L11.7796 1.78477C11.9207 1.64363 12 1.45221 12 1.2526C12 1.053 11.9207 0.861573 11.7796 0.720433C11.6384 0.579292 11.447 0.5 11.2474 0.5C11.0478 0.5 10.8564 0.579292 10.7152 0.720433L6.00064 5.44251L1.28605 0.720433C1.14491 0.579292 0.953486 0.5 0.753883 0.5C0.55428 0.5 0.362852 0.579292 0.221712 0.720433C0.0805711 0.861573 0.00127934 1.053 0.00127934 1.2526C0.00127934 1.45221 0.0805711 1.64363 0.221712 1.78477L4.94379 6.49936L0.221712 11.2139C0.151459 11.2836 0.0956977 11.3665 0.0576447 11.4579C0.0195918 11.5492 0 11.6472 0 11.7461C0 11.8451 0.0195918 11.943 0.0576447 12.0344C0.0956977 12.1257 0.151459 12.2086 0.221712 12.2783C0.291391 12.3485 0.37429 12.4043 0.465628 12.4424C0.556966 12.4804 0.654935 12.5 0.753883 12.5C0.852831 12.5 0.950799 12.4804 1.04214 12.4424C1.13348 12.4043 1.21637 12.3485 1.28605 12.2783L6.00064 7.55621L10.7152 12.2783C10.7849 12.3485 10.8678 12.4043 10.9591 12.4424C11.0505 12.4804 11.1484 12.5 11.2474 12.5C11.3463 12.5 11.4443 12.4804 11.5357 12.4424C11.627 12.4043 11.7099 12.3485 11.7796 12.2783C11.8498 12.2086 11.9056 12.1257 11.9436 12.0344C11.9817 11.943 12.0013 11.8451 12.0013 11.7461C12.0013 11.6472 11.9817 11.5492 11.9436 11.4579C11.9056 11.3665 11.8498 11.2836 11.7796 11.2139L7.05749 6.49936Z" fill="#7F7575"/>
</svg>
