<svg width="21" height="20" viewBox="0 0 21 20" fill="none" xmlns="http://www.w3.org/2000/svg">
<path d="M18.7539 6.56641C18.6834 6.56641 18.6166 6.57926 18.5559 6.60398L18.4668 6.64891L11.7686 10.123L11.6167 10.201C11.6167 10.201 11.6146 10.2019 11.6146 10.2029C11.3193 10.3852 11.125 10.6914 11.125 11.0398V18.2997C11.125 18.549 11.3457 18.7506 11.6207 18.7506C11.7028 18.7507 11.7839 18.7319 11.8576 18.6958C11.8637 18.6921 11.8718 18.6884 11.8779 18.6848L18.7033 15.0639L18.7134 15.0584C19.0354 14.8825 19.25 14.5607 19.25 14.1949V7.01555C19.25 6.76715 19.0273 6.56641 18.7539 6.56641Z" fill="#7F7575"/>
<path d="M18.2441 4.62973L11.1464 1.43711C11.1464 1.43711 10.73 1.25 10.4989 1.25C10.2677 1.25 9.85332 1.43711 9.85332 1.43711L2.74957 4.62973C2.74957 4.62973 2.4375 4.75832 2.4375 5C2.4375 5.25633 2.76172 5.44922 2.76172 5.44922L9.89383 9.21371L10.0072 9.27148C10.155 9.33738 10.3227 9.37496 10.4989 9.37496C10.677 9.37496 10.8471 9.33734 10.9966 9.26965L11.0958 9.21828L18.24 5.44734C18.24 5.44734 18.5333 5.28969 18.5333 4.99996C18.5333 4.74609 18.2441 4.62973 18.2441 4.62973Z" fill="#7F7575"/>
<path d="M9.38535 10.2029L9.22941 10.123L2.53285 6.64891L2.44379 6.60398C2.38539 6.57922 2.31652 6.56641 2.2457 6.56641C1.97238 6.56641 1.75 6.76711 1.75 7.01551V14.1949C1.75 14.5616 1.96426 14.8825 2.28621 15.0584L2.29434 15.0639L9.12008 18.6847C9.195 18.7269 9.2841 18.7506 9.3793 18.7506C9.6523 18.7506 9.875 18.549 9.875 18.2997V11.0398C9.87496 10.6914 9.68059 10.3852 9.38535 10.2029Z" fill="#7F7575"/>
</svg>
