<svg width="18" height="19" viewBox="0 0 18 19" fill="none" xmlns="http://www.w3.org/2000/svg">
<path d="M7.5 10.5H0.5C0.2 10.5 0 10.7 0 11V18C0 18.3 0.2 18.5 0.5 18.5H7.5C7.8 18.5 8 18.3 8 18V11C8 10.7 7.8 10.5 7.5 10.5ZM7 17.5H1V11.5H7V17.5ZM7.5 0.5H0.5C0.2 0.5 0 0.7 0 1V8C0 8.3 0.2 8.5 0.5 8.5H7.5C7.8 8.5 8 8.3 8 8V1C8 0.7 7.8 0.5 7.5 0.5ZM7 7.5H1V1.5H7V7.5ZM17.5 0.5H10.5C10.2 0.5 10 0.7 10 1V8C10 8.3 10.2 8.5 10.5 8.5H17.5C17.8 8.5 18 8.3 18 8V1C18 0.7 17.8 0.5 17.5 0.5ZM17 7.5H11V1.5H17V7.5ZM17.5 14H14.5V11C14.5 10.7 14.3 10.5 14 10.5C13.7 10.5 13.5 10.7 13.5 11V14H10.5C10.2 14 10 14.2 10 14.5C10 14.8 10.2 15 10.5 15H13.5V18C13.5 18.3 13.7 18.5 14 18.5C14.3 18.5 14.5 18.3 14.5 18V15H17.5C17.8 15 18 14.8 18 14.5C18 14.2 17.8 14 17.5 14Z" fill="#7F7575"/>
</svg>
