<svg width="20" height="20" viewBox="0 0 20 20" fill="none" xmlns="http://www.w3.org/2000/svg">
<g clip-path="url(#clip0_1_17920)">
<path d="M7.14219 9.0625H1.92031C1.41114 9.06209 0.922942 8.85964 0.562904 8.4996C0.202865 8.13956 0.000413793 7.65136 0 7.14219L0 1.92031C0.000413793 1.41114 0.202865 0.922942 0.562904 0.562904C0.922942 0.202865 1.41114 0.000413793 1.92031 0L7.14219 0C7.65136 0.000413793 8.13956 0.202865 8.4996 0.562904C8.85964 0.922942 9.06209 1.41114 9.0625 1.92031V7.14219C9.06209 7.65136 8.85964 8.13956 8.4996 8.4996C8.13956 8.85964 7.65136 9.06209 7.14219 9.0625ZM1.92031 0.625C1.5769 0.625413 1.24767 0.762016 1.00485 1.00485C0.762016 1.24767 0.625413 1.5769 0.625 1.92031V7.14219C0.625413 7.4856 0.762016 7.81483 1.00485 8.05766C1.24767 8.30048 1.5769 8.43709 1.92031 8.4375H7.14219C7.4856 8.43709 7.81483 8.30048 8.05766 8.05766C8.30048 7.81483 8.43709 7.4856 8.4375 7.14219V1.92031C8.43709 1.5769 8.30048 1.24767 8.05766 1.00485C7.81483 0.762016 7.4856 0.625413 7.14219 0.625H1.92031ZM18.0797 9.0625H12.8578C12.3486 9.06209 11.8604 8.85964 11.5004 8.4996C11.1404 8.13956 10.9379 7.65136 10.9375 7.14219V1.92031C10.9379 1.41114 11.1404 0.922942 11.5004 0.562904C11.8604 0.202865 12.3486 0.000413793 12.8578 0L18.0797 0C18.5889 0.000413793 19.0771 0.202865 19.4371 0.562904C19.7971 0.922942 19.9996 1.41114 20 1.92031V7.14219C19.9996 7.65136 19.7971 8.13956 19.4371 8.4996C19.0771 8.85964 18.5889 9.06209 18.0797 9.0625ZM12.8578 0.625C12.5144 0.625413 12.1852 0.762016 11.9423 1.00485C11.6995 1.24767 11.5629 1.5769 11.5625 1.92031V7.14219C11.5629 7.4856 11.6995 7.81483 11.9423 8.05766C12.1852 8.30048 12.5144 8.43709 12.8578 8.4375H18.0797C18.4231 8.43709 18.7523 8.30048 18.9952 8.05766C19.238 7.81483 19.3746 7.4856 19.375 7.14219V1.92031C19.3746 1.5769 19.238 1.24767 18.9952 1.00485C18.7523 0.762016 18.4231 0.625413 18.0797 0.625H12.8578ZM7.14219 20H1.92031C1.41114 19.9996 0.922942 19.7971 0.562904 19.4371C0.202865 19.0771 0.000413793 18.5889 0 18.0797V12.8578C0.000413793 12.3486 0.202865 11.8604 0.562904 11.5004C0.922942 11.1404 1.41114 10.9379 1.92031 10.9375H7.14219C7.65136 10.9379 8.13956 11.1404 8.4996 11.5004C8.85964 11.8604 9.06209 12.3486 9.0625 12.8578V18.0797C9.06209 18.5889 8.85964 19.0771 8.4996 19.4371C8.13956 19.7971 7.65136 19.9996 7.14219 20ZM1.92031 11.5625C1.5769 11.5629 1.24767 11.6995 1.00485 11.9423C0.762016 12.1852 0.625413 12.5144 0.625 12.8578V18.0797C0.625413 18.4231 0.762016 18.7523 1.00485 18.9952C1.24767 19.238 1.5769 19.3746 1.92031 19.375H7.14219C7.4856 19.3746 7.81483 19.238 8.05766 18.9952C8.30048 18.7523 8.43709 18.4231 8.4375 18.0797V12.8578C8.43709 12.5144 8.30048 12.1852 8.05766 11.9423C7.81483 11.6995 7.4856 11.5629 7.14219 11.5625H1.92031ZM18.0797 20H12.8578C12.3486 19.9996 11.8604 19.7971 11.5004 19.4371C11.1404 19.0771 10.9379 18.5889 10.9375 18.0797V12.8578C10.9379 12.3486 11.1404 11.8604 11.5004 11.5004C11.8604 11.1404 12.3486 10.9379 12.8578 10.9375H18.0797C18.5889 10.9379 19.0771 11.1404 19.4371 11.5004C19.7971 11.8604 19.9996 12.3486 20 12.8578V18.0797C19.9996 18.5889 19.7971 19.0771 19.4371 19.4371C19.0771 19.7971 18.5889 19.9996 18.0797 20ZM12.8578 11.5625C12.5144 11.5629 12.1852 11.6995 11.9423 11.9423C11.6995 12.1852 11.5629 12.5144 11.5625 12.8578V18.0797C11.5629 18.4231 11.6995 18.7523 11.9423 18.9952C12.1852 19.238 12.5144 19.3746 12.8578 19.375H18.0797C18.4231 19.3746 18.7523 19.238 18.9952 18.9952C19.238 18.7523 19.3746 18.4231 19.375 18.0797V12.8578C19.3746 12.5144 19.238 12.1852 18.9952 11.9423C18.7523 11.6995 18.4231 11.5629 18.0797 11.5625H12.8578Z" fill="#7F7575"/>
</g>
<defs>
<clipPath id="clip0_1_17920">
<rect width="20" height="20" fill="white"/>
</clipPath>
</defs>
</svg>
