<svg width="12" height="13" viewBox="0 0 12 13" fill="none" xmlns="http://www.w3.org/2000/svg">
<path d="M5 7.16667H0.333333C0.133333 7.16667 0 7.3 0 7.5V12.1667C0 12.3667 0.133333 12.5 0.333333 12.5H5C5.2 12.5 5.33333 12.3667 5.33333 12.1667V7.5C5.33333 7.3 5.2 7.16667 5 7.16667ZM4.66667 11.8333H0.666667V7.83333H4.66667V11.8333ZM5 0.5H0.333333C0.133333 0.5 0 0.633333 0 0.833333V5.5C0 5.7 0.133333 5.83333 0.333333 5.83333H5C5.2 5.83333 5.33333 5.7 5.33333 5.5V0.833333C5.33333 0.633333 5.2 0.5 5 0.5ZM4.66667 5.16667H0.666667V1.16667H4.66667V5.16667ZM11.6667 0.5H7C6.8 0.5 6.66667 0.633333 6.66667 0.833333V5.5C6.66667 5.7 6.8 5.83333 7 5.83333H11.6667C11.8667 5.83333 12 5.7 12 5.5V0.833333C12 0.633333 11.8667 0.5 11.6667 0.5ZM11.3333 5.16667H7.33333V1.16667H11.3333V5.16667ZM11.6667 9.5H9.66667V7.5C9.66667 7.3 9.53333 7.16667 9.33333 7.16667C9.13333 7.16667 9 7.3 9 7.5V9.5H7C6.8 9.5 6.66667 9.63333 6.66667 9.83333C6.66667 10.0333 6.8 10.1667 7 10.1667H9V12.1667C9 12.3667 9.13333 12.5 9.33333 12.5C9.53333 12.5 9.66667 12.3667 9.66667 12.1667V10.1667H11.6667C11.8667 10.1667 12 10.0333 12 9.83333C12 9.63333 11.8667 9.5 11.6667 9.5Z" fill="#7F7575"/>
</svg>
