<svg width="22" height="21" viewBox="0 0 22 21" fill="none" xmlns="http://www.w3.org/2000/svg">
<path fill-rule="evenodd" clip-rule="evenodd" d="M10.6406 2.79578L7.69536 1.21245C7.65019 1.18785 7.59968 1.17497 7.54836 1.17497C7.49705 1.17497 7.44653 1.18785 7.40136 1.21245L0.166114 5.11397C0.117661 5.14007 0.0768678 5.17861 0.0478374 5.2257C0.0188071 5.27278 0.00256275 5.32676 0.000738294 5.3822C-0.00108616 5.43764 0.0115735 5.49259 0.0374441 5.54152C0.0633148 5.59045 0.101484 5.63163 0.148114 5.66093L2.90811 7.392L0.160114 8.9526C0.112214 8.97957 0.0721968 9.01881 0.0440926 9.06637C0.0159884 9.11393 0.00079049 9.16813 3.00124e-05 9.22352C-0.000730465 9.2789 0.0129734 9.33351 0.0397609 9.38184C0.0665484 9.43017 0.105473 9.47052 0.152614 9.49881L3.20886 11.3481V16.0261C3.20886 16.142 3.27186 16.2481 3.37236 16.3034L10.4989 20.2215C10.5437 20.2467 10.5939 20.2602 10.6451 20.2609H10.6541C10.7027 20.2604 10.7504 20.2485 10.7936 20.2261L18.5584 16.3087C18.6103 16.2824 18.6541 16.2421 18.6846 16.1922C18.7152 16.1423 18.7315 16.0848 18.7316 16.0261V11.1246L21.4721 9.48745C21.5199 9.45902 21.5594 9.41822 21.5864 9.36926C21.6134 9.32029 21.627 9.26494 21.6258 9.20889C21.6246 9.15285 21.6086 9.09816 21.5795 9.05044C21.5503 9.00273 21.5091 8.96372 21.4601 8.93745L18.4264 7.29806L21.2636 5.667C21.3113 5.64027 21.3511 5.60135 21.3792 5.55413C21.4072 5.50692 21.4225 5.45308 21.4234 5.39803C21.4243 5.34298 21.4108 5.28865 21.3844 5.24052C21.3579 5.19238 21.3194 5.15213 21.2726 5.12381L14.2571 0.78442C14.2081 0.754368 14.1518 0.738416 14.0945 0.738282C14.0371 0.738149 13.9808 0.75384 13.9316 0.783662L10.6406 2.79578ZM18.1061 11.4981L14.1251 13.8768C14.0763 13.9059 14.0205 13.921 13.9638 13.9205C13.9071 13.9199 13.8517 13.9038 13.8034 13.8738L10.6564 11.9268L7.71936 13.8693C7.67022 13.9016 7.61309 13.9192 7.55447 13.9203C7.49586 13.9214 7.43813 13.9058 7.38786 13.8753L3.83361 11.7261V15.8382L10.3384 19.414V13.1344C10.3384 13.0507 10.3713 12.9705 10.4299 12.9113C10.4884 12.8521 10.5679 12.8189 10.6507 12.8189C10.7336 12.8189 10.813 12.8521 10.8716 12.9113C10.9302 12.9705 10.9631 13.0507 10.9631 13.1344V19.4344L18.1061 15.8306V11.4981ZM17.7881 7.66851L11.2579 11.5587L13.9699 13.2367L18.1099 10.7632C18.1279 9.89275 18.2734 9.56775 18.4196 9.62609C18.5434 9.57609 18.6671 9.8026 18.7129 10.4026L20.6764 9.22912L17.7889 7.66851H17.7881ZM10.0556 11.57L3.52011 7.76851L0.935614 9.23669L7.54086 13.2321L10.0541 11.57H10.0556ZM4.14261 7.40184L10.6496 11.1874L17.1596 7.31018L10.6534 3.52457L4.14336 7.40184H4.14261ZM10.0121 3.17306L3.87711 6.8276L3.52611 7.03593L0.938614 5.41321L7.54911 1.84881L10.0121 3.17306ZM11.2661 3.15184L14.0936 1.42381L20.4956 5.3829L17.7814 6.94275L11.2661 3.15184Z" fill="#FFFDFD"/>
</svg>
