<svg width="20" height="21" viewBox="0 0 20 21" fill="none" xmlns="http://www.w3.org/2000/svg">
<path d="M16.875 3H16.25V2.375C16.25 2 16 1.75 15.625 1.75C15.25 1.75 15 2 15 2.375V3H12.5V2.375C12.5 2 12.25 1.75 11.875 1.75C11.5 1.75 11.25 2 11.25 2.375V3H8.75V2.375C8.75 2 8.5 1.75 8.125 1.75C7.75 1.75 7.5 2 7.5 2.375V3H5V2.375C5 2 4.75 1.75 4.375 1.75C4 1.75 3.75 2 3.75 2.375V3H3.125C2.0625 3 1.25 3.8125 1.25 4.875V6.75H18.75V4.875C18.75 3.8125 17.9375 3 16.875 3ZM13.75 5.5H6.25C5.875 5.5 5.625 5.25 5.625 4.875C5.625 4.5 5.875 4.25 6.25 4.25H13.75C14.125 4.25 14.375 4.5 14.375 4.875C14.375 5.25 14.125 5.5 13.75 5.5ZM13.125 11.125H12.5C12.125 11.125 11.875 11.375 11.875 11.75V15.5C11.875 15.875 12.125 16.125 12.5 16.125H13.125C13.5 16.125 13.75 15.875 13.75 15.5V11.75C13.75 11.375 13.5 11.125 13.125 11.125Z" fill="#ECEBEB" fill-opacity="0.7"/>
<path d="M1.25 8V17.375C1.25 18.4375 2.0625 19.25 3.125 19.25H16.875C17.9375 19.25 18.75 18.4375 18.75 17.375V8H1.25ZM9.375 12.375C9.375 12.875 9.1875 13.3125 8.875 13.625C9.1875 13.9375 9.375 14.375 9.375 14.875V15.5C9.375 16.5625 8.5625 17.375 7.5 17.375H6.875C5.8125 17.375 5 16.5625 5 15.5C5 15.125 5.25 14.875 5.625 14.875C6 14.875 6.25 15.125 6.25 15.5C6.25 15.875 6.5 16.125 6.875 16.125H7.5C7.875 16.125 8.125 15.875 8.125 15.5V14.875C8.125 14.5 7.875 14.25 7.5 14.25C7.375 14.25 7.25 14.1875 7.1875 14.125C7.125 14.125 7.125 14.0625 7.0625 14.0625C7.0625 14.0625 7 14 7 13.9375C6.9375 13.875 6.875 13.75 6.875 13.625C6.875 13.5 6.9375 13.375 7 13.3125C7 13.25 7.0625 13.25 7.0625 13.1875L7.125 13.125C7.25 13.0625 7.375 13 7.5 13C7.875 13 8.125 12.75 8.125 12.375V11.75C8.125 11.375 7.875 11.125 7.5 11.125H6.875C6.5 11.125 6.25 11.375 6.25 11.75C6.25 12.125 6 12.375 5.625 12.375C5.25 12.375 5 12.125 5 11.75C5 10.6875 5.8125 9.875 6.875 9.875H7.5C8.5625 9.875 9.375 10.6875 9.375 11.75V12.375ZM15 15.5C15 16.5625 14.1875 17.375 13.125 17.375H12.5C11.4375 17.375 10.625 16.5625 10.625 15.5V11.75C10.625 10.6875 11.4375 9.875 12.5 9.875H13.125C14.1875 9.875 15 10.6875 15 11.75V15.5Z" fill="#ECEBEB" fill-opacity="0.7"/>
</svg>
