<svg width="40" height="40" viewBox="0 0 40 40" fill="none" xmlns="http://www.w3.org/2000/svg">
<rect width="40" height="40" rx="8" fill="#D9D9D9"/>
<path d="M30.8646 13.2169V33.0673C30.8646 34.1349 29.9987 34.9999 28.932 34.9999H11.0693C10.0018 34.9999 9.13672 34.1349 9.13672 33.0673V6.9326C9.13666 5.86508 10.0017 5 11.0693 5H22.6477L30.8646 13.2169Z" fill="#518EF8"/>
<path d="M25.5562 20.0625H14.4453V21.2971H25.5562V20.0625Z" fill="white"/>
<path d="M25.5562 22.8184H14.4453V24.053H25.5562V22.8184Z" fill="white"/>
<path d="M25.5562 25.5762H14.4453V26.8108H25.5562V25.5762Z" fill="white"/>
<path d="M22.347 28.334H14.4453V29.5686H22.347V28.334Z" fill="white"/>
<path d="M23.7695 13.0386L30.8654 15.9619V13.2172L26.8422 12.0293L23.7695 13.0386Z" fill="#3A5BBC"/>
<path d="M30.8653 13.2169H24.581C23.5135 13.2169 22.6484 12.3518 22.6484 11.2843V5L30.8653 13.2169Z" fill="#ACD1FC"/>
</svg>
