<svg width="12" height="12" viewBox="0 0 12 12" fill="none" xmlns="http://www.w3.org/2000/svg">
<g clip-path="url(#clip0_1_67166)">
<path d="M6 0.375C4.88748 0.375 3.79995 0.704901 2.87492 1.32298C1.94989 1.94107 1.22892 2.81957 0.80318 3.84741C0.377437 4.87524 0.266043 6.00624 0.483085 7.09738C0.700127 8.18853 1.23586 9.19081 2.02253 9.97748C2.8092 10.7641 3.81148 11.2999 4.90262 11.5169C5.99376 11.734 7.12476 11.6226 8.1526 11.1968C9.18043 10.7711 10.0589 10.0501 10.677 9.12508C11.2951 8.20006 11.625 7.11252 11.625 6C11.625 4.50816 11.0324 3.07742 9.97748 2.02252C8.92259 0.967632 7.49185 0.375 6 0.375ZM6 10.9987C5.01134 10.9987 4.04489 10.7056 3.22285 10.1563C2.40081 9.60704 1.7601 8.82634 1.38176 7.91294C1.00342 6.99954 0.904424 5.99445 1.0973 5.02479C1.29018 4.05513 1.76626 3.16444 2.46535 2.46535C3.16444 1.76626 4.05513 1.29018 5.02479 1.0973C5.99446 0.904422 6.99954 1.00341 7.91294 1.38176C8.82634 1.7601 9.60704 2.4008 10.1563 3.22284C10.7056 4.04488 10.9988 5.01134 10.9988 6C10.9968 7.32514 10.4695 8.59544 9.53246 9.53246C8.59544 10.4695 7.32514 10.9968 6 10.9987Z" fill="#515151"/>
<path d="M5.21687 6.9709L4.01688 5.7709L3.48438 6.29965L5.21687 8.0284L8.85438 4.3909L8.32563 3.8584L5.21687 6.9709Z" fill="#515151"/>
</g>
<defs>
<clipPath id="clip0_1_67166">
<rect width="12" height="12" fill="white"/>
</clipPath>
</defs>
</svg>
