<svg width="28" height="28" viewBox="0 0 28 28" fill="none" xmlns="http://www.w3.org/2000/svg">
<path d="M27.5938 5.09376C27.5938 4.59648 27.3962 4.11956 27.0446 3.76793C26.6929 3.4163 26.216 3.21876 25.7188 3.21876H19.9625L19.3438 1.3672C19.2518 1.08692 19.0735 0.842957 18.8343 0.67032C18.5952 0.497682 18.3075 0.40524 18.0125 0.406258H12.8C12.505 0.40524 12.2173 0.497682 11.9782 0.67032C11.739 0.842957 11.5607 1.08692 11.4688 1.3672L10.85 3.21876H5.09375C4.71216 3.21739 4.33931 3.33292 4.02535 3.54981C3.71139 3.7667 3.47138 4.07454 3.33762 4.43192C3.20386 4.7893 3.18275 5.17908 3.27715 5.54881C3.37155 5.91854 3.57692 6.25049 3.86563 6.50001H2.75C2.1284 6.50001 1.53226 6.74694 1.09272 7.18648C0.65318 7.62602 0.40625 8.22216 0.40625 8.84376V13.0625C0.40625 13.4355 0.554408 13.7932 0.818131 14.0569C1.08185 14.3206 1.43954 14.4688 1.8125 14.4688C2.18546 14.4688 2.54315 14.3206 2.80687 14.0569C3.07059 13.7932 3.21875 13.4355 3.21875 13.0625V9.78126C3.21875 9.65694 3.26814 9.53771 3.35604 9.4498C3.44395 9.36189 3.56318 9.31251 3.6875 9.31251C3.73706 9.31039 3.78604 9.30091 3.83281 9.28438C4.17585 9.60242 4.62597 9.77979 5.09375 9.78126H5.11719L5.75 21.0406C5.68906 21.0359 5.62813 21.0313 5.5625 21.0313C5.01237 21.0303 4.47083 21.1677 3.98767 21.4307C3.50451 21.6938 3.09525 22.0741 2.79752 22.5367C2.49979 22.9993 2.32315 23.5293 2.28384 24.0781C2.24454 24.6268 2.34382 25.1766 2.57258 25.6769C2.80133 26.1772 3.1522 26.612 3.59293 26.9412C4.03366 27.2705 4.5501 27.4836 5.09475 27.5611C5.6394 27.6385 6.19478 27.5778 6.70982 27.3845C7.22486 27.1911 7.68303 26.8714 8.04219 26.4547C8.40173 26.59 8.78302 26.6583 9.16719 26.6563H21.6453C22.4855 26.6562 23.2937 26.3339 23.9033 25.7557C24.5129 25.1775 24.8775 24.3875 24.9219 23.5484L25.6953 9.78126H25.7188C26.1003 9.78262 26.4732 9.66709 26.7872 9.4502C27.1011 9.23331 27.3411 8.92547 27.4749 8.56809C27.6086 8.21071 27.6297 7.82094 27.5353 7.45121C27.441 7.08148 27.2356 6.74953 26.9469 6.50001C27.1494 6.32582 27.312 6.11005 27.4236 5.86739C27.5352 5.62473 27.5933 5.36086 27.5938 5.09376ZM2.28125 9.78126V13.0625C2.28125 13.1868 2.23186 13.3061 2.14396 13.394C2.05605 13.4819 1.93682 13.5313 1.8125 13.5313C1.68818 13.5313 1.56895 13.4819 1.48104 13.394C1.39314 13.3061 1.34375 13.1868 1.34375 13.0625V8.84376C1.34486 8.47114 1.49338 8.1141 1.75686 7.85062C2.02034 7.58714 2.37738 7.43862 2.75 7.43751H3.28438C3.24322 7.59045 3.22118 7.7479 3.21875 7.90626C3.2228 8.08582 3.25118 8.26401 3.30313 8.43595C3.01005 8.51922 2.75194 8.69543 2.56765 8.93805C2.38336 9.18067 2.28285 9.47658 2.28125 9.78126ZM12.3547 1.66251C12.3861 1.5694 12.446 1.48854 12.526 1.43134C12.6059 1.37414 12.7017 1.3435 12.8 1.34376H18.0125C18.1108 1.3435 18.2066 1.37414 18.2865 1.43134C18.3665 1.48854 18.4264 1.5694 18.4578 1.66251L18.9734 3.21876H11.8391L12.3547 1.66251ZM5.5625 26.6563C5.09895 26.6563 4.64581 26.5188 4.26038 26.2613C3.87495 26.0037 3.57455 25.6377 3.39716 25.2094C3.21976 24.7812 3.17335 24.3099 3.26378 23.8553C3.35422 23.4006 3.57744 22.983 3.90522 22.6552C4.233 22.3274 4.65061 22.1042 5.10526 22.0138C5.5599 21.9234 6.03115 21.9698 6.45941 22.1472C6.88768 22.3246 7.25372 22.625 7.51126 23.0104C7.76879 23.3958 7.90625 23.849 7.90625 24.3125C7.90625 24.9341 7.65932 25.5303 7.21978 25.9698C6.78024 26.4093 6.1841 26.6563 5.5625 26.6563ZM23.9844 23.4969C23.9532 24.0963 23.6932 24.6609 23.258 25.0743C22.8228 25.4877 22.2456 25.7184 21.6453 25.7188H9.16719C8.96304 25.7183 8.75981 25.6915 8.5625 25.6391C8.74404 25.2297 8.8397 24.7874 8.84359 24.3395C8.84748 23.8917 8.75951 23.4478 8.58511 23.0353C8.41071 22.6228 8.15358 22.2505 7.82962 21.9413C7.50566 21.632 7.12173 21.3925 6.70156 21.2375L6.05938 9.78126H24.7531L23.9844 23.4969ZM25.7188 8.84376H5.09375C4.84511 8.84376 4.60665 8.74499 4.43084 8.56917C4.25502 8.39335 4.15625 8.1549 4.15625 7.90626C4.15625 7.65762 4.25502 7.41916 4.43084 7.24335C4.60665 7.06753 4.84511 6.96876 5.09375 6.96876H25.7188C25.9674 6.96876 26.2058 7.06753 26.3817 7.24335C26.5575 7.41916 26.6562 7.65762 26.6562 7.90626C26.6562 8.1549 26.5575 8.39335 26.3817 8.56917C26.2058 8.74499 25.9674 8.84376 25.7188 8.84376ZM25.7188 6.03126H5.09375C4.84511 6.03126 4.60665 5.93249 4.43084 5.75667C4.25502 5.58086 4.15625 5.3424 4.15625 5.09376C4.15625 4.84512 4.25502 4.60666 4.43084 4.43085C4.60665 4.25503 4.84511 4.15626 5.09375 4.15626H25.7188C25.9674 4.15626 26.2058 4.25503 26.3817 4.43085C26.5575 4.60666 26.6562 4.84512 26.6562 5.09376C26.6562 5.3424 26.5575 5.58086 26.3817 5.75667C26.2058 5.93249 25.9674 6.03126 25.7188 6.03126Z" fill="#A239EA"/>
</svg>
