<svg width="60" height="60" viewBox="0 0 60 60" fill="none" xmlns="http://www.w3.org/2000/svg">
<path d="M0 20.8C0 13.5193 0 9.87898 1.41692 7.09812C2.66327 4.65202 4.65202 2.66327 7.09812 1.41692C9.87898 0 13.5193 0 20.8 0H39.2C46.4807 0 50.121 0 52.9019 1.41692C55.348 2.66327 57.3367 4.65202 58.5831 7.09812C60 9.87898 60 13.5193 60 20.8V39.2C60 46.4807 60 50.121 58.5831 52.9019C57.3367 55.348 55.348 57.3367 52.9019 58.5831C50.121 60 46.4807 60 39.2 60H20.8C13.5193 60 9.87898 60 7.09812 58.5831C4.65202 57.3367 2.66327 55.348 1.41692 52.9019C0 50.121 0 46.4807 0 39.2V20.8Z" fill="white"/>
<path d="M14 16C14 14.8954 14.8954 14 16 14C17.1046 14 18 14.8954 18 16V44C18 45.1046 17.1046 46 16 46C14.8954 46 14 45.1046 14 44V16Z" fill="url(#paint0_linear_2353_70340)"/>
<path d="M21 20C21 18.8954 21.8954 18 23 18C24.1046 18 25 18.8954 25 20V40C25 41.1046 24.1046 42 23 42C21.8954 42 21 41.1046 21 40V20Z" fill="url(#paint1_linear_2353_70340)"/>
<path d="M28 24C28 22.8954 28.8954 22 30 22C31.1046 22 32 22.8954 32 24V36C32 37.1046 31.1046 38 30 38C28.8954 38 28 37.1046 28 36V24Z" fill="url(#paint2_linear_2353_70340)"/>
<path d="M35 27C35 25.8954 35.8954 25 37 25C38.1046 25 39 25.8954 39 27V33C39 34.1046 38.1046 35 37 35C35.8954 35 35 34.1046 35 33V27Z" fill="url(#paint3_linear_2353_70340)"/>
<path d="M42 30C42 28.8954 42.8954 28 44 28C45.1046 28 46 28.8954 46 30C46 31.1046 45.1046 32 44 32C42.8954 32 42 31.1046 42 30Z" fill="url(#paint4_linear_2353_70340)"/>
<defs>
<linearGradient id="paint0_linear_2353_70340" x1="14" y1="14" x2="14" y2="46" gradientUnits="userSpaceOnUse">
<stop stop-color="#FF9500"/>
<stop offset="1" stop-color="#FF2D55"/>
</linearGradient>
<linearGradient id="paint1_linear_2353_70340" x1="14" y1="14" x2="14" y2="46" gradientUnits="userSpaceOnUse">
<stop stop-color="#FF9500"/>
<stop offset="1" stop-color="#FF2D55"/>
</linearGradient>
<linearGradient id="paint2_linear_2353_70340" x1="14" y1="14" x2="14" y2="46" gradientUnits="userSpaceOnUse">
<stop stop-color="#FF9500"/>
<stop offset="1" stop-color="#FF2D55"/>
</linearGradient>
<linearGradient id="paint3_linear_2353_70340" x1="14" y1="14" x2="14" y2="46" gradientUnits="userSpaceOnUse">
<stop stop-color="#FF9500"/>
<stop offset="1" stop-color="#FF2D55"/>
</linearGradient>
<linearGradient id="paint4_linear_2353_70340" x1="14" y1="14" x2="14" y2="46" gradientUnits="userSpaceOnUse">
<stop stop-color="#FF9500"/>
<stop offset="1" stop-color="#FF2D55"/>
</linearGradient>
</defs>
</svg>
