<svg width="30" height="30" viewBox="0 0 30 30" fill="none" xmlns="http://www.w3.org/2000/svg">
<path d="M27.5 7.5H2.5V3.75C2.5 3.05965 3.05965 2.5 3.75 2.5H26.25C26.9404 2.5 27.5 3.05965 27.5 3.75V7.5Z" fill="#6563FF"/>
<path d="M13.75 10H2.5V17.5H13.75V10Z" fill="#B2B1FF"/>
<path d="M2.5 20H13.75V27.5H3.75C3.05965 27.5 2.5 26.9404 2.5 26.25V20Z" fill="#B2B1FF"/>
<path d="M27.5 10H16.25V17.5H27.5V10Z" fill="#B2B1FF"/>
<path d="M26.25 27.5H16.25V20H27.5V26.25C27.5 26.9404 26.9403 27.5 26.25 27.5Z" fill="#B2B1FF"/>
<path d="M27.5 10V7.5H2.5V10H13.75V17.5H2.5V20H13.75V27.5H16.25V20H27.5V17.5H16.25V10H27.5Z" fill="#D8D8FF"/>
</svg>
