<svg width="28" height="28" viewBox="0 0 28 28" fill="none" xmlns="http://www.w3.org/2000/svg">
<path d="M10.71 18.2936L13 20.5941V11.0017C13 10.7365 13.1054 10.482 13.2929 10.2945C13.4804 10.1069 13.7348 10.0015 14 10.0015C14.2652 10.0015 14.5196 10.1069 14.7071 10.2945C14.8946 10.482 15 10.7365 15 11.0017V20.5941L17.29 18.2936C17.383 18.1998 17.4936 18.1254 17.6154 18.0746C17.7373 18.0238 17.868 17.9977 18 17.9977C18.132 17.9977 18.2627 18.0238 18.3846 18.0746C18.5064 18.1254 18.617 18.1998 18.71 18.2936C18.8037 18.3865 18.8781 18.4972 18.9289 18.6191C18.9797 18.741 19.0058 18.8717 19.0058 19.0037C19.0058 19.1358 18.9797 19.2665 18.9289 19.3884C18.8781 19.5103 18.8037 19.6209 18.71 19.7139L14.71 23.7149C14.6149 23.806 14.5028 23.8774 14.38 23.925C14.1365 24.025 13.8635 24.025 13.62 23.925C13.4972 23.8774 13.3851 23.806 13.29 23.7149L9.29 19.7139C9.19676 19.6207 9.1228 19.5099 9.07234 19.3881C9.02188 19.2662 8.99591 19.1356 8.99591 19.0037C8.99591 18.8718 9.02188 18.7412 9.07234 18.6194C9.1228 18.4975 9.19676 18.3868 9.29 18.2936C9.38324 18.2003 9.49393 18.1263 9.61575 18.0758C9.73757 18.0254 9.86814 17.9994 10 17.9994C10.1319 17.9994 10.2624 18.0254 10.3842 18.0758C10.5061 18.1263 10.6168 18.2003 10.71 18.2936ZM23 12.002C22.7348 12.002 22.4804 11.8966 22.2929 11.709C22.1054 11.5214 22 11.267 22 11.0017V7.00075C22 6.73547 21.8946 6.48105 21.7071 6.29346C21.5196 6.10588 21.2652 6.0005 21 6.0005H7C6.73478 6.0005 6.48043 6.10588 6.29289 6.29346C6.10536 6.48105 6 6.73547 6 7.00075V11.0017C6 11.267 5.89464 11.5214 5.70711 11.709C5.51957 11.8966 5.26522 12.002 5 12.002C4.73478 12.002 4.48043 11.8966 4.29289 11.709C4.10536 11.5214 4 11.267 4 11.0017V7.00075C4 6.2049 4.31607 5.44165 4.87868 4.8789C5.44129 4.31615 6.20435 4 7 4H21C21.7957 4 22.5587 4.31615 23.1213 4.8789C23.6839 5.44165 24 6.2049 24 7.00075V11.0017C24 11.267 23.8946 11.5214 23.7071 11.709C23.5196 11.8966 23.2652 12.002 23 12.002Z" fill="#7F7575"/>
</svg>
