<svg width="18" height="18" viewBox="0 0 18 18" fill="none" xmlns="http://www.w3.org/2000/svg">
<path d="M1.05882 14.4C0.423529 14.4 0 14.76 0 15.3V17.1C0 17.64 0.423529 18 1.05882 18C1.69412 18 2.11765 17.64 2.11765 17.1V15.3C2.11765 14.76 1.69412 14.4 1.05882 14.4ZM6.35294 10.8C5.71765 10.8 5.29412 11.16 5.29412 11.7V17.1C5.29412 17.64 5.71765 18 6.35294 18C6.98824 18 7.41177 17.64 7.41177 17.1V11.7C7.41177 11.16 6.98824 10.8 6.35294 10.8ZM16.9412 0C16.3059 0 15.8824 0.36 15.8824 0.9V17.1C15.8824 17.64 16.3059 18 16.9412 18C17.5765 18 18 17.64 18 17.1V0.9C18 0.36 17.5765 0 16.9412 0ZM11.6471 6.3C11.0118 6.3 10.5882 6.66 10.5882 7.2V17.1C10.5882 17.64 11.0118 18 11.6471 18C12.2824 18 12.7059 17.64 12.7059 17.1V7.2C12.7059 6.66 12.2824 6.3 11.6471 6.3Z" fill="#7F7575"/>
<path d="M1.05882 14.4C0.423529 14.4 0 14.76 0 15.3V17.1C0 17.64 0.423529 18 1.05882 18C1.69412 18 2.11765 17.64 2.11765 17.1V15.3C2.11765 14.76 1.69412 14.4 1.05882 14.4ZM6.35294 10.8C5.71765 10.8 5.29412 11.16 5.29412 11.7V17.1C5.29412 17.64 5.71765 18 6.35294 18C6.98824 18 7.41177 17.64 7.41177 17.1V11.7C7.41177 11.16 6.98824 10.8 6.35294 10.8ZM11.6471 6.3C11.0118 6.3 10.5882 6.66 10.5882 7.2V17.1C10.5882 17.64 11.0118 18 11.6471 18C12.2824 18 12.7059 17.64 12.7059 17.1V7.2C12.7059 6.66 12.2824 6.3 11.6471 6.3Z" fill="#055FFC"/>
</svg>
