<svg width="9" height="14" viewBox="0 0 9 14" fill="none" xmlns="http://www.w3.org/2000/svg">
<path d="M8.99974 0.514901C9.00214 0.446733 8.98779 0.378876 8.95756 0.315503C8.92732 0.252131 8.88185 0.194582 8.82394 0.146395C8.71143 0.0526585 8.55885 0 8.39975 0C8.24065 0 8.08807 0.0526585 7.97556 0.146395L0.175669 6.64649C0.0631876 6.74026 0 6.86742 0 7C0 7.13258 0.0631876 7.25974 0.175669 7.35351L7.97556 13.8536C8.08807 13.9473 8.24065 14 8.39975 14C8.55885 14 8.71143 13.9473 8.82394 13.8536C8.93642 13.7598 8.99961 13.6327 8.99961 13.5001C8.99961 13.3675 8.93642 13.2404 8.82394 13.1466L1.44825 7L8.82394 0.853406C8.93231 0.76324 8.9952 0.641958 8.99974 0.514401V0.514901Z" fill="#7F7575"/>
</svg>
