<svg width="16" height="18" viewBox="0 0 16 18" fill="none" xmlns="http://www.w3.org/2000/svg">
<path d="M1.76375 16.0204C0.20375 14.4604 0.20375 11.9204 1.76375 10.3604L10.6237 1.60039C11.7237 0.500391 13.4838 0.500391 14.5838 1.60039C15.6838 2.70039 15.6838 4.46039 14.5838 5.56039L5.72375 14.3404C5.10375 14.9604 4.08375 14.9604 3.46375 14.3404C2.84375 13.7204 2.84375 12.7004 3.46375 12.0804L7.92375 7.72039C8.08375 7.56039 8.34375 7.56039 8.48375 7.72039C8.64375 7.88039 8.64375 8.14039 8.48375 8.28039L4.04375 12.6404C3.74375 12.9404 3.74375 13.4604 4.04375 13.7604C4.36375 14.0804 4.86375 14.0804 5.18375 13.7604L14.0437 5.00039C14.8237 4.22039 14.8237 2.96039 14.0437 2.18039C13.2637 1.40039 12.0037 1.40039 11.2237 2.18039L2.34375 10.9404C1.10375 12.1804 1.10375 14.2204 2.34375 15.4604C3.60375 16.7004 5.62375 16.7004 6.86375 15.4604L14.5237 7.90039C14.6837 7.74039 14.9438 7.74039 15.0838 7.90039C15.2438 8.06039 15.2438 8.32039 15.0838 8.46039L7.42375 16.0404C5.86375 17.5804 3.34375 17.6004 1.76375 16.0204Z" fill="#7F7575"/>
</svg>
