<svg width="16" height="17" viewBox="0 0 16 17" fill="none" xmlns="http://www.w3.org/2000/svg">
<path d="M5.90325 6.98115C5.26766 6.98115 4.63036 6.98115 3.99477 6.98115C3.08046 6.98115 2.16616 6.98115 1.25355 6.98115C1.15668 6.98115 1.05981 6.98115 0.964645 6.98115C0.95105 6.98115 0.939154 6.98115 0.925558 6.98115C0.917061 6.98115 0.910263 6.98115 0.901766 6.98115C0.862678 6.97756 0.869476 6.97935 0.922159 6.98653C0.91876 6.99013 0.872875 6.97576 0.866077 6.97397C0.859279 6.97217 0.811695 6.9614 0.811695 6.95601C0.82529 6.9614 0.838886 6.96858 0.850782 6.97397C0.837187 6.96679 0.823591 6.9596 0.811695 6.95242C0.804897 6.94883 0.755613 6.9219 0.755613 6.91472C0.767509 6.9237 0.777706 6.93267 0.789602 6.94165C0.777706 6.93088 0.767509 6.92011 0.757312 6.90934C0.759012 6.91113 0.726722 6.87702 0.726722 6.87522C0.755613 6.91831 0.760711 6.9237 0.738618 6.89138C0.730121 6.87882 0.721624 6.86445 0.714826 6.85188C0.711427 6.8447 0.708028 6.83752 0.704629 6.83034C0.689334 6.79443 0.691034 6.80162 0.711427 6.85188C0.706329 6.85188 0.692733 6.78905 0.691034 6.78366C0.691034 6.78725 0.679138 6.73698 0.682536 6.73519C0.684236 6.75135 0.687635 6.76571 0.689334 6.78187C0.687635 6.76571 0.687635 6.74776 0.687635 6.7316C0.687635 6.72801 0.687635 6.72442 0.687635 6.72083C0.687635 6.6939 0.687635 6.66517 0.687635 6.63824C0.687635 6.50898 0.687635 6.38151 0.687635 6.25224C0.687635 5.25943 0.687635 4.26481 0.687635 3.27199C0.687635 2.82855 0.687635 2.3851 0.687635 1.94165C0.687635 1.81598 0.687635 1.69031 0.687635 1.56463C0.687635 1.5377 0.687635 1.50898 0.687635 1.48205C0.687635 1.47846 0.687635 1.47487 0.687635 1.47307C0.687635 1.46409 0.687635 1.45691 0.687635 1.44794C0.691034 1.41562 0.689334 1.41562 0.685935 1.44614C0.684236 1.45332 0.684236 1.4623 0.682536 1.46948C0.684236 1.45332 0.687635 1.43716 0.691034 1.42101C0.692733 1.41382 0.706329 1.35278 0.711427 1.35278C0.691034 1.40126 0.689334 1.40844 0.704629 1.37433C0.711427 1.35996 0.718225 1.3474 0.726722 1.33303C0.730121 1.32585 0.735219 1.32047 0.738618 1.31329C0.755613 1.28815 0.755613 1.28815 0.738618 1.31149C0.73352 1.31688 0.730121 1.32406 0.725023 1.32944C0.73522 1.31688 0.745416 1.3061 0.755613 1.29533C0.760711 1.28995 0.76581 1.28456 0.770908 1.27917C0.798099 1.25404 0.793001 1.25763 0.753913 1.28995C0.753913 1.28276 0.803198 1.25583 0.809995 1.25224C0.816793 1.24865 0.823591 1.24506 0.830389 1.24147C0.864378 1.22531 0.85758 1.22711 0.809995 1.24865C0.820192 1.24865 0.840586 1.23788 0.852482 1.23429C0.85928 1.2325 0.917061 1.21275 0.92046 1.21813C0.867777 1.22531 0.860979 1.22711 0.900066 1.22352C0.908563 1.22352 0.915361 1.22352 0.923859 1.22352C0.937454 1.22352 0.952749 1.22352 0.966345 1.22352C1.06491 1.22352 1.16348 1.22352 1.26205 1.22352C1.66482 1.22352 2.06589 1.22352 2.46866 1.22352C3.42715 1.22352 4.38394 1.22352 5.34243 1.22352C5.52937 1.22352 5.71801 1.21993 5.90495 1.22352C5.91345 1.22352 5.92025 1.22352 5.92874 1.22352C5.96783 1.22711 5.96103 1.22531 5.90835 1.21813C5.91175 1.21275 5.96953 1.2325 5.97633 1.23429C5.98313 1.23609 5.99162 1.23968 5.99842 1.24147C6.03241 1.25583 6.02731 1.25224 5.97973 1.2325C5.98313 1.2289 6.02391 1.25763 6.02901 1.25943C6.03581 1.26302 6.0749 1.28456 6.0749 1.29174C6.063 1.28276 6.0528 1.27379 6.04091 1.26481C6.0528 1.27558 6.063 1.28636 6.0732 1.29713C6.0783 1.30251 6.08339 1.3079 6.08849 1.31329C6.11228 1.34201 6.10889 1.33662 6.0783 1.29533C6.09019 1.29533 6.11908 1.36535 6.12588 1.37612C6.15477 1.4246 6.11228 1.35458 6.11908 1.35458C6.12418 1.35458 6.13778 1.41741 6.13948 1.4228C6.14118 1.42998 6.14288 1.43896 6.14457 1.44614C6.15137 1.48564 6.14967 1.47846 6.14287 1.4228C6.14457 1.4228 6.14457 1.47307 6.14457 1.47307C6.14457 1.47666 6.14457 1.48205 6.14457 1.48564C6.14457 1.56643 6.14457 1.64901 6.14457 1.7298C6.14457 2.66338 6.14457 3.59695 6.14457 4.53052C6.14457 5.26122 6.15307 5.99192 6.14457 6.72262C6.14457 6.72621 6.14457 6.7298 6.14457 6.7316C6.14457 6.74057 6.14457 6.74776 6.14457 6.75673C6.14118 6.79803 6.14287 6.79084 6.14967 6.73519C6.15477 6.73878 6.13608 6.79982 6.13438 6.807C6.13268 6.81598 6.10379 6.886 6.12758 6.83214C6.15137 6.77648 6.11908 6.8465 6.11568 6.85368C6.11228 6.86086 6.08679 6.91293 6.08 6.91293C6.08849 6.90036 6.09699 6.88959 6.10549 6.87702C6.09529 6.88959 6.08509 6.90036 6.0749 6.91113C6.0698 6.91652 6.0647 6.9219 6.0596 6.92729C6.03241 6.95242 6.03751 6.94883 6.0766 6.91652C6.0766 6.92011 6.04601 6.93986 6.03921 6.94345C6.03411 6.94704 5.98313 6.98115 5.97973 6.97756C5.99332 6.97217 6.00692 6.96499 6.01881 6.9596C6.00522 6.96499 5.98992 6.97038 5.97633 6.97397C5.96953 6.97576 5.91175 6.99551 5.90835 6.99013C5.92365 6.98833 5.93724 6.98474 5.95254 6.98294C5.93554 6.98115 5.92025 6.98115 5.90325 6.98115C5.72481 6.98474 5.55486 7.14273 5.56336 7.34022C5.57186 7.53232 5.71291 7.70287 5.90325 7.69928C6.40969 7.68851 6.81246 7.26481 6.82096 6.7298C6.82266 6.66876 6.82096 6.60952 6.82096 6.54847C6.82096 6.16786 6.82096 5.78905 6.82096 5.40844C6.82096 4.35099 6.82096 3.29533 6.82096 2.23788C6.82096 1.98474 6.82436 1.7316 6.82096 1.47846C6.81586 1.05655 6.57284 0.693896 6.19726 0.552065C6.0681 0.503591 5.93214 0.5 5.79789 0.5C4.96346 0.5 4.12902 0.5 3.29459 0.5C2.51794 0.5 1.7396 0.5 0.962946 0.5C0.692733 0.5 0.425919 0.598743 0.244078 0.817774C0.0775316 1.01706 0.00615464 1.25943 0.00615464 1.52154C0.00615464 1.82855 0.00615464 2.13555 0.00615464 2.44255C0.00615464 3.50718 0.00615464 4.57181 0.00615464 5.63645C0.00615464 5.97038 0.00615464 6.30431 0.00615464 6.63824C0.00615464 6.82316 0.0282475 6.9991 0.106422 7.16786C0.259373 7.5 0.594165 7.6939 0.937454 7.69749C1.67162 7.70287 2.40748 7.69749 3.14164 7.69749C4.01176 7.69749 4.88188 7.69749 5.7503 7.69749C5.80128 7.69749 5.85227 7.69749 5.90155 7.69749C6.08 7.69749 6.24994 7.53232 6.24144 7.33842C6.23464 7.14632 6.09359 6.98115 5.90325 6.98115ZM5.90325 9.29713C5.24217 9.29713 4.58108 9.29713 3.91999 9.29713C3.00569 9.29713 2.09138 9.29713 1.17708 9.29713C1.0972 9.29713 1.01733 9.29713 0.937454 9.29713C0.543181 9.30072 0.20669 9.54847 0.063936 9.93268C-0.0278344 10.1822 0.00615464 10.5036 0.00615464 10.7675C0.00615464 11.7873 0.00615464 12.807 0.00615464 13.8285C0.00615464 14.2684 0.00615464 14.7101 0.00615464 15.1499C0.00615464 15.2612 0.00615464 15.3707 0.00615464 15.482C0.00615464 15.7549 0.0894278 16.0171 0.274668 16.2127C0.461608 16.4102 0.709728 16.4964 0.969744 16.4964C1.07341 16.4964 1.17708 16.4964 1.27904 16.4964C1.69541 16.4964 2.11347 16.4964 2.52984 16.4964C3.49853 16.4964 4.46891 16.4964 5.4376 16.4964C5.72481 16.4964 6.03071 16.5287 6.29922 16.3995C6.62382 16.2433 6.81756 15.8842 6.82096 15.5144C6.82096 15.43 6.82096 15.3456 6.82096 15.2612C6.82096 14.2953 6.82096 13.3294 6.82096 12.3636C6.82096 11.6652 6.83285 10.9668 6.82096 10.2684C6.81246 9.7316 6.40969 9.3079 5.90325 9.29713C5.72481 9.29354 5.55486 9.46589 5.56336 9.65619C5.57186 9.85368 5.71291 10.0117 5.90325 10.0153C5.91175 10.0153 5.91855 10.0153 5.92704 10.0153C5.96613 10.0189 5.95933 10.0171 5.90665 10.0099C5.91005 10.0045 5.96783 10.0242 5.97463 10.026C5.98143 10.0278 5.98992 10.0314 5.99672 10.0332C6.03071 10.0476 6.02561 10.044 5.97803 10.0242C5.98143 10.0206 6.02221 10.0494 6.02731 10.0512C6.03411 10.0548 6.0732 10.0763 6.0732 10.0835C6.0613 10.0745 6.0511 10.0655 6.03921 10.0566C6.0511 10.0673 6.0613 10.0781 6.0715 10.0889C6.0766 10.0943 6.08169 10.0996 6.08679 10.105C6.11059 10.1338 6.10719 10.1284 6.0766 10.0871C6.08849 10.0871 6.11738 10.1571 6.12418 10.1679C6.15307 10.2163 6.11059 10.1463 6.11738 10.1463C6.12248 10.1463 6.13608 10.2092 6.13778 10.2145C6.13948 10.2217 6.14118 10.2307 6.14287 10.2379C6.14967 10.2774 6.14797 10.2702 6.14118 10.2145C6.14287 10.2145 6.14287 10.2648 6.14287 10.2648C6.14287 10.2684 6.14287 10.2738 6.14287 10.2774C6.14287 10.3582 6.14287 10.4408 6.14287 10.5215C6.14287 10.9165 6.14287 11.3097 6.14287 11.7047C6.14287 12.7352 6.14287 13.7639 6.14287 14.7944C6.14287 15.035 6.14627 15.2738 6.14287 15.5144C6.14287 15.518 6.14287 15.5215 6.14287 15.5233C6.14287 15.5323 6.14287 15.5395 6.14287 15.5485C6.13948 15.5898 6.14118 15.5826 6.14797 15.5269C6.15307 15.5305 6.13438 15.5916 6.13268 15.5987C6.13098 15.6077 6.10209 15.6777 6.12588 15.6239C6.14967 15.5682 6.10719 15.6562 6.10209 15.6652C6.09869 15.6724 6.09359 15.6777 6.09019 15.6849C6.0698 15.7154 6.0732 15.7101 6.10209 15.6688C6.10379 15.6724 6.0596 15.7154 6.0562 15.719C6.00692 15.7765 6.11908 15.6813 6.0562 15.7208C6.04261 15.728 6.03071 15.737 6.01881 15.746C6.01202 15.7496 6.00522 15.7531 5.99842 15.7567C5.96443 15.7729 5.97123 15.7711 6.01881 15.7496C6.01881 15.7549 5.95933 15.7693 5.95424 15.7711C5.94744 15.7729 5.93894 15.7747 5.93214 15.7765C5.89475 15.7837 5.90155 15.7819 5.95424 15.7747C5.94744 15.7711 5.91685 15.7765 5.90665 15.7765C5.85227 15.7783 5.79619 15.7765 5.7418 15.7765C4.89378 15.7765 4.04405 15.7765 3.19603 15.7765C2.45167 15.7765 1.70731 15.7765 0.962946 15.7765C0.942553 15.7765 0.922159 15.7765 0.903465 15.7765C0.823591 15.7783 0.976542 15.7962 0.901766 15.7783C0.886471 15.7747 0.871176 15.7711 0.85758 15.7675C0.850782 15.7657 0.842285 15.7621 0.835487 15.7603C0.801498 15.746 0.806596 15.7496 0.854181 15.7693C0.850782 15.7729 0.799799 15.7388 0.7947 15.7352C0.787902 15.7316 0.782804 15.7262 0.776006 15.7226C0.747116 15.7011 0.752214 15.7047 0.791301 15.7352C0.787902 15.737 0.747116 15.6903 0.743717 15.6867C0.704629 15.649 0.762411 15.7047 0.753913 15.7047C0.742017 15.7047 0.713127 15.6347 0.706329 15.6239C0.667241 15.5575 0.723323 15.6993 0.706329 15.6221C0.70123 15.5987 0.694433 15.5754 0.689334 15.5521C0.674039 15.4964 0.697832 15.5772 0.691034 15.5754C0.689334 15.5754 0.689334 15.5251 0.689334 15.5251C0.689334 15.5215 0.689334 15.5162 0.689334 15.5126C0.689334 15.4838 0.689334 15.4551 0.689334 15.4264C0.689334 15.0961 0.689334 14.7657 0.689334 14.4354C0.689334 13.3941 0.689334 12.3546 0.689334 11.3133C0.689334 10.9937 0.689334 10.6741 0.689334 10.3564C0.689334 10.3294 0.689334 10.3025 0.689334 10.2756C0.689334 10.2648 0.689334 10.2522 0.689334 10.2433C0.687635 10.1697 0.689334 10.2684 0.684236 10.2648C0.679138 10.2612 0.697832 10.2002 0.699531 10.193C0.70123 10.1858 0.704629 10.1768 0.706329 10.1697C0.719924 10.1338 0.716525 10.1391 0.697831 10.1894C0.692733 10.184 0.736919 10.1158 0.742017 10.1068C0.776006 10.0476 0.731821 10.1266 0.730121 10.123C0.728422 10.1194 0.772607 10.0763 0.776006 10.0727C0.82529 10.0153 0.713127 10.1104 0.776006 10.0709C0.7947 10.0583 0.815094 10.0476 0.833788 10.035C0.896667 9.99372 0.762411 10.053 0.835487 10.035C0.850782 10.0314 0.864378 10.026 0.879673 10.0224C0.886471 10.0206 0.894968 10.0189 0.901766 10.0171C0.939154 10.0099 0.932356 10.0117 0.879673 10.0189C0.879673 10.0171 0.927257 10.0171 0.927257 10.0171C0.942553 10.0171 0.957848 10.0171 0.973143 10.0171C1.7311 10.0171 2.48905 10.0171 3.24701 10.0171C4.08484 10.0171 4.92267 10.0171 5.7605 10.0171C5.80978 10.0171 5.85737 10.0171 5.90665 10.0171C6.08509 10.0171 6.25504 9.85188 6.24654 9.65799C6.23465 9.4623 6.09359 9.29713 5.90325 9.29713ZM8.27229 2.80341C8.51871 2.80341 8.76343 2.80341 9.00985 2.80341C9.59616 2.80341 10.1842 2.80341 10.7705 2.80341C11.4826 2.80341 12.1963 2.80341 12.9084 2.80341C13.5219 2.80341 14.1354 2.80341 14.7489 2.80341C15.048 2.80341 15.3471 2.81239 15.6462 2.80341C15.6513 2.80341 15.6547 2.80341 15.6598 2.80341C15.8382 2.80341 16.0082 2.63824 15.9997 2.44434C15.9912 2.25045 15.8501 2.08528 15.6598 2.08528C15.4134 2.08528 15.1687 2.08528 14.9222 2.08528C14.3359 2.08528 13.7479 2.08528 13.1616 2.08528C12.4495 2.08528 11.7358 2.08528 11.0237 2.08528C10.4102 2.08528 9.7967 2.08528 9.18319 2.08528C8.88409 2.08528 8.58499 2.0763 8.28588 2.08528C8.28079 2.08528 8.27739 2.08528 8.27229 2.08528C8.09385 2.08528 7.9239 2.25045 7.9324 2.44434C7.94089 2.63824 8.08195 2.80341 8.27229 2.80341ZM12.99 5.39587C12.4563 5.39587 11.9244 5.39587 11.3908 5.39587C10.5445 5.39587 9.69983 5.39587 8.8535 5.39587C8.65976 5.39587 8.46603 5.39587 8.27229 5.39587C8.09385 5.39587 7.9239 5.56104 7.9324 5.75494C7.94089 5.94883 8.08195 6.114 8.27229 6.114C8.80592 6.114 9.33784 6.114 9.87147 6.114C10.7178 6.114 11.5624 6.114 12.4088 6.114C12.6025 6.114 12.7962 6.114 12.99 6.114C13.1684 6.114 13.3384 5.94883 13.3299 5.75494C13.3214 5.56104 13.1803 5.39587 12.99 5.39587ZM8.27229 11.6005C8.51871 11.6005 8.76343 11.6005 9.00985 11.6005C9.59616 11.6005 10.1842 11.6005 10.7705 11.6005C11.4826 11.6005 12.1963 11.6005 12.9084 11.6005C13.5219 11.6005 14.1354 11.6005 14.7489 11.6005C15.048 11.6005 15.3471 11.6095 15.6462 11.6005C15.6513 11.6005 15.6547 11.6005 15.6598 11.6005C15.8382 11.6005 16.0082 11.4354 15.9997 11.2415C15.9912 11.0476 15.8501 10.8824 15.6598 10.8824C15.4134 10.8824 15.1687 10.8824 14.9222 10.8824C14.3359 10.8824 13.7479 10.8824 13.1616 10.8824C12.4495 10.8824 11.7358 10.8824 11.0237 10.8824C10.4102 10.8824 9.7967 10.8824 9.18319 10.8824C8.88409 10.8824 8.58499 10.8734 8.28588 10.8824C8.28079 10.8824 8.27739 10.8824 8.27229 10.8824C8.09385 10.8824 7.9239 11.0476 7.9324 11.2415C7.94089 11.4354 8.08195 11.6005 8.27229 11.6005ZM12.99 14.193C12.4563 14.193 11.9244 14.193 11.3908 14.193C10.5445 14.193 9.69983 14.193 8.8535 14.193C8.65976 14.193 8.46603 14.193 8.27229 14.193C8.09385 14.193 7.9239 14.3582 7.9324 14.5521C7.94089 14.746 8.08195 14.9111 8.27229 14.9111C8.80592 14.9111 9.33784 14.9111 9.87147 14.9111C10.7178 14.9111 11.5624 14.9111 12.4088 14.9111C12.6025 14.9111 12.7962 14.9111 12.99 14.9111C13.1684 14.9111 13.3384 14.746 13.3299 14.5521C13.3214 14.3582 13.1803 14.193 12.99 14.193Z" fill="#7F7575"/>
</svg>
