<svg width="14" height="15" viewBox="0 0 14 15" fill="none" xmlns="http://www.w3.org/2000/svg">
<path fill-rule="evenodd" clip-rule="evenodd" d="M3.78906 6.91634C3.62931 6.91634 3.4974 7.04826 3.4974 7.20801V12.458C3.4974 12.6178 3.62931 12.7497 3.78906 12.7497H10.2057C10.3655 12.7497 10.4974 12.6178 10.4974 12.458V7.20801C10.4974 7.04826 10.3655 6.91634 10.2057 6.91634H3.78906ZM2.91406 7.20801C2.91406 6.72609 3.30715 6.33301 3.78906 6.33301H10.2057C10.6876 6.33301 11.0807 6.72609 11.0807 7.20801V12.458C11.0807 12.9399 10.6876 13.333 10.2057 13.333H3.78906C3.30715 13.333 2.91406 12.9399 2.91406 12.458V7.20801Z" fill="#ECEBEB" fill-opacity="0.7"/>
<path fill-rule="evenodd" clip-rule="evenodd" d="M7.0026 2.25033C5.70302 2.25033 4.66927 3.2534 4.66927 4.45533V6.62533C4.66927 6.78641 4.53869 6.91699 4.3776 6.91699C4.21652 6.91699 4.08594 6.78641 4.08594 6.62533V4.45533C4.08594 2.90392 5.40886 1.66699 7.0026 1.66699C8.59008 1.66699 9.91927 2.90351 9.91927 4.45533V6.62533C9.91927 6.78641 9.78869 6.91699 9.6276 6.91699C9.46652 6.91699 9.33594 6.78641 9.33594 6.62533V4.45533C9.33594 3.25381 8.29679 2.25033 7.0026 2.25033Z" fill="#ECEBEB" fill-opacity="0.7"/>
<path fill-rule="evenodd" clip-rule="evenodd" d="M7.0026 9.25033C6.68044 9.25033 6.41927 9.51149 6.41927 9.83366C6.41927 10.1558 6.68044 10.417 7.0026 10.417C7.32477 10.417 7.58594 10.1558 7.58594 9.83366C7.58594 9.51149 7.32477 9.25033 7.0026 9.25033ZM5.83594 9.83366C5.83594 9.18933 6.35827 8.66699 7.0026 8.66699C7.64694 8.66699 8.16927 9.18933 8.16927 9.83366C8.16927 10.478 7.64694 11.0003 7.0026 11.0003C6.35827 11.0003 5.83594 10.478 5.83594 9.83366Z" fill="#ECEBEB" fill-opacity="0.7"/>
</svg>
