<svg width="14" height="15" viewBox="0 0 14 15" fill="none" xmlns="http://www.w3.org/2000/svg">
<path fill-rule="evenodd" clip-rule="evenodd" d="M11.5625 3.4831C11.6301 3.5385 11.6693 3.62128 11.6693 3.70866V11.292C11.6693 11.3794 11.6301 11.4622 11.5625 11.5176C11.4949 11.573 11.4061 11.5951 11.3204 11.578L2.5704 9.828C2.43407 9.80073 2.33594 9.68103 2.33594 9.54199V5.45866C2.33594 5.31963 2.43407 5.19992 2.5704 5.17266L11.3204 3.42266C11.4061 3.40552 11.4949 3.4277 11.5625 3.4831ZM2.91927 5.69777V9.30289L11.0859 10.9362V4.06444L2.91927 5.69777Z" fill="#ECEBEB" fill-opacity="0.7"/>
<path fill-rule="evenodd" clip-rule="evenodd" d="M0.831781 5.41284C0.995925 5.24869 1.21966 5.16699 1.46094 5.16699H2.6276C2.78869 5.16699 2.91927 5.29758 2.91927 5.45866C2.91927 5.61974 2.78869 5.75033 2.6276 5.75033H1.46094C1.35222 5.75033 1.28428 5.78529 1.24426 5.82531C1.20424 5.86534 1.16927 5.93327 1.16927 6.04199V8.95866C1.16927 9.06738 1.20424 9.13531 1.24426 9.17534C1.28428 9.21536 1.35222 9.25033 1.46094 9.25033H2.6276C2.78869 9.25033 2.91927 9.38091 2.91927 9.54199C2.91927 9.70308 2.78869 9.83366 2.6276 9.83366H1.46094C1.21966 9.83366 0.995925 9.75196 0.831781 9.58781C0.667637 9.42367 0.585938 9.19994 0.585938 8.95866V6.04199C0.585938 5.80071 0.667637 5.57698 0.831781 5.41284Z" fill="#ECEBEB" fill-opacity="0.7"/>
<path fill-rule="evenodd" clip-rule="evenodd" d="M11.3776 2.25C11.5387 2.25 11.6693 2.38058 11.6693 2.54167V12.4583C11.6693 12.6194 11.5387 12.75 11.3776 12.75C11.2165 12.75 11.0859 12.6194 11.0859 12.4583V2.54167C11.0859 2.38058 11.2165 2.25 11.3776 2.25Z" fill="#ECEBEB" fill-opacity="0.7"/>
<path fill-rule="evenodd" clip-rule="evenodd" d="M11.0859 6.04167C11.0859 5.88058 11.2165 5.75 11.3776 5.75H11.9609C12.7637 5.75 13.4193 6.40558 13.4193 7.20833V7.79167C13.4193 8.59442 12.7637 9.25 11.9609 9.25H11.3776C11.2165 9.25 11.0859 9.11942 11.0859 8.95833C11.0859 8.79725 11.2165 8.66667 11.3776 8.66667H11.9609C12.4415 8.66667 12.8359 8.27225 12.8359 7.79167V7.20833C12.8359 6.72775 12.4415 6.33333 11.9609 6.33333H11.3776C11.2165 6.33333 11.0859 6.20275 11.0859 6.04167Z" fill="#ECEBEB" fill-opacity="0.7"/>
<path fill-rule="evenodd" clip-rule="evenodd" d="M3.79167 9.83301C3.95275 9.83301 4.08333 9.96359 4.08333 10.1247V11.2913C4.08333 11.4001 4.1183 11.468 4.15832 11.508C4.19835 11.548 4.26628 11.583 4.375 11.583H7.29167C7.40039 11.583 7.46832 11.548 7.50834 11.508C7.54837 11.468 7.58333 11.4001 7.58333 11.2913V10.708C7.58333 10.5469 7.71392 10.4163 7.875 10.4163C8.03608 10.4163 8.16667 10.5469 8.16667 10.708V11.2913C8.16667 11.5326 8.08497 11.7564 7.92082 11.9205C7.75668 12.0846 7.53295 12.1663 7.29167 12.1663H4.375C4.13372 12.1663 3.90999 12.0846 3.74584 11.9205C3.5817 11.7564 3.5 11.5326 3.5 11.2913V10.1247C3.5 9.96359 3.63058 9.83301 3.79167 9.83301Z" fill="#ECEBEB" fill-opacity="0.7"/>
</svg>
