<svg width="20" height="20" viewBox="0 0 20 20" fill="none" xmlns="http://www.w3.org/2000/svg">
<path d="M9.99935 10.8327C10.4596 10.8327 10.8327 10.4596 10.8327 9.99935C10.8327 9.53911 10.4596 9.16602 9.99935 9.16602C9.53911 9.16602 9.16602 9.53911 9.16602 9.99935C9.16602 10.4596 9.53911 10.8327 9.99935 10.8327Z" fill="#7F7575"/>
<path d="M13.3333 10.8327C13.7936 10.8327 14.1667 10.4596 14.1667 9.99935C14.1667 9.53911 13.7936 9.16602 13.3333 9.16602C12.8731 9.16602 12.5 9.53911 12.5 9.99935C12.5 10.4596 12.8731 10.8327 13.3333 10.8327Z" fill="#7F7575"/>
<path d="M6.66732 10.8327C7.12756 10.8327 7.50065 10.4596 7.50065 9.99935C7.50065 9.53911 7.12756 9.16602 6.66732 9.16602C6.20708 9.16602 5.83398 9.53911 5.83398 9.99935C5.83398 10.4596 6.20708 10.8327 6.66732 10.8327Z" fill="#7F7575"/>
<path d="M15.8915 4.10843C14.5242 2.73218 12.7196 1.87611 10.7887 1.6878C8.85786 1.49949 6.92181 1.99075 5.31434 3.07688C3.70687 4.163 2.52872 5.77594 1.98299 7.63761C1.43726 9.49928 1.55817 11.493 2.32485 13.2751C2.40476 13.4407 2.43098 13.6272 2.39985 13.8084L1.66652 17.3334C1.63827 17.4686 1.64404 17.6086 1.68331 17.741C1.72258 17.8734 1.79413 17.9939 1.89152 18.0918C1.97136 18.171 2.06642 18.2333 2.17097 18.2748C2.27552 18.3164 2.38739 18.3363 2.49985 18.3334H2.66652L6.23319 17.6168C6.41446 17.595 6.59829 17.6208 6.76652 17.6918C8.5486 18.4585 10.5423 18.5794 12.404 18.0336C14.2657 17.4879 15.8786 16.3097 16.9647 14.7023C18.0509 13.0948 18.5421 11.1588 18.3538 9.22792C18.1655 7.29707 17.3094 5.49242 15.9332 4.1251L15.8915 4.10843ZM16.5832 11.0751C16.4203 12.0701 16.0338 13.0152 15.4528 13.8392C14.8719 14.6632 14.1116 15.3447 13.2291 15.8325C12.3467 16.3202 11.3652 16.6015 10.3584 16.655C9.35156 16.7086 8.34571 16.5331 7.41652 16.1418C7.08697 16.0016 6.73296 15.928 6.37485 15.9251C6.21842 15.9262 6.06234 15.9401 5.90819 15.9668L3.55819 16.4418L4.03319 14.0918C4.12779 13.5828 4.06681 13.0572 3.85819 12.5834C3.46685 11.6542 3.29136 10.6484 3.34493 9.64158C3.3985 8.63477 3.67974 7.65322 4.16747 6.77081C4.65521 5.88839 5.33674 5.1281 6.16077 4.54714C6.9848 3.96618 7.92987 3.5797 8.92485 3.41677C9.96925 3.24536 11.0394 3.32508 12.0469 3.64932C13.0544 3.97356 13.9702 4.533 14.7186 5.28138C15.467 6.02976 16.0264 6.94556 16.3506 7.95304C16.6749 8.96051 16.7546 10.0307 16.5832 11.0751Z" fill="#7F7575"/>
</svg>
