<svg width="14" height="15" viewBox="0 0 14 15" fill="none" xmlns="http://www.w3.org/2000/svg">
<path fill-rule="evenodd" clip-rule="evenodd" d="M1.75 6.33333C1.10567 6.33333 0.583333 6.85567 0.583333 7.5C0.583333 8.14433 1.10567 8.66667 1.75 8.66667C2.39433 8.66667 2.91667 8.14433 2.91667 7.5C2.91667 6.85567 2.39433 6.33333 1.75 6.33333ZM0 7.5C0 6.5335 0.783502 5.75 1.75 5.75C2.7165 5.75 3.5 6.5335 3.5 7.5C3.5 8.4665 2.7165 9.25 1.75 9.25C0.783502 9.25 0 8.4665 0 7.5Z" fill="#ECEBEB" fill-opacity="0.7"/>
<path fill-rule="evenodd" clip-rule="evenodd" d="M12.25 6.33333C11.6057 6.33333 11.0833 6.85567 11.0833 7.5C11.0833 8.14433 11.6057 8.66667 12.25 8.66667C12.8943 8.66667 13.4167 8.14433 13.4167 7.5C13.4167 6.85567 12.8943 6.33333 12.25 6.33333ZM10.5 7.5C10.5 6.5335 11.2835 5.75 12.25 5.75C13.2165 5.75 14 6.5335 14 7.5C14 8.4665 13.2165 9.25 12.25 9.25C11.2835 9.25 10.5 8.4665 10.5 7.5Z" fill="#ECEBEB" fill-opacity="0.7"/>
<path fill-rule="evenodd" clip-rule="evenodd" d="M7 6.33333C6.35567 6.33333 5.83333 6.85567 5.83333 7.5C5.83333 8.14433 6.35567 8.66667 7 8.66667C7.64433 8.66667 8.16667 8.14433 8.16667 7.5C8.16667 6.85567 7.64433 6.33333 7 6.33333ZM5.25 7.5C5.25 6.5335 6.0335 5.75 7 5.75C7.9665 5.75 8.75 6.5335 8.75 7.5C8.75 8.4665 7.9665 9.25 7 9.25C6.0335 9.25 5.25 8.4665 5.25 7.5Z" fill="#ECEBEB" fill-opacity="0.7"/>
</svg>
