<svg width="12" height="13" viewBox="0 0 12 13" fill="none" xmlns="http://www.w3.org/2000/svg">
<path d="M1.12459 9.81439C0.734603 9.81439 0.474609 10.0354 0.474609 10.3669V11.4718C0.474609 11.8033 0.734603 12.0243 1.12459 12.0243C1.51458 12.0243 1.77458 11.8033 1.77458 11.4718V10.3669C1.77458 10.0354 1.51458 9.81439 1.12459 9.81439ZM4.37451 7.60444C3.98452 7.60444 3.72453 7.82544 3.72453 8.15693V11.4718C3.72453 11.8033 3.98452 12.0243 4.37451 12.0243C4.7645 12.0243 5.0245 11.8033 5.0245 11.4718V8.15693C5.0245 7.82544 4.7645 7.60444 4.37451 7.60444ZM10.8743 0.974609C10.4844 0.974609 10.2244 1.1956 10.2244 1.5271V11.4718C10.2244 11.8033 10.4844 12.0243 10.8743 12.0243C11.2643 12.0243 11.5243 11.8033 11.5243 11.4718V1.5271C11.5243 1.1956 11.2643 0.974609 10.8743 0.974609ZM7.62443 4.84201C7.23444 4.84201 6.97445 5.06301 6.97445 5.3945V11.4718C6.97445 11.8033 7.23444 12.0243 7.62443 12.0243C8.01442 12.0243 8.27441 11.8033 8.27441 11.4718V5.3945C8.27441 5.06301 8.01442 4.84201 7.62443 4.84201Z" fill="#7F7575"/>
</svg>
