<svg width="21" height="20" viewBox="0 0 21 20" fill="none" xmlns="http://www.w3.org/2000/svg">
<path d="M10.5017 19.999C10.2742 19.999 10.045 19.9399 9.8425 19.8207L2.40417 15.4807C2.20478 15.3636 2.03949 15.1964 1.92473 14.9957C1.80997 14.795 1.74974 14.5677 1.75 14.3365V5.66152C1.74953 5.43014 1.80957 5.20266 1.92418 5.00166C2.03879 4.80065 2.20397 4.63312 2.40334 4.51569L9.84167 0.179019C10.0416 0.0620707 10.269 0.000293866 10.5006 1.04584e-06C10.7322 -0.000291775 10.9598 0.0609099 11.16 0.177353L18.5942 4.51485C18.9992 4.75235 19.25 5.19069 19.25 5.66069V14.3382C19.2492 14.569 19.1886 14.7956 19.0741 14.996C18.9596 15.1964 18.7951 15.3637 18.5967 15.4815L11.16 19.8207C10.9604 19.9377 10.7331 19.9993 10.5017 19.999ZM10.5017 0.833186C10.4182 0.832824 10.3361 0.854992 10.2642 0.897353L2.82334 5.23485C2.7498 5.27867 2.68897 5.34093 2.64688 5.41547C2.60478 5.49001 2.58288 5.57425 2.58334 5.65985V14.3365C2.58334 14.5124 2.675 14.674 2.82417 14.7615L10.2625 19.1015C10.3347 19.1445 10.4172 19.1672 10.5013 19.1672C10.5853 19.1672 10.6678 19.1445 10.74 19.1015L18.175 14.7632C18.2486 14.7191 18.3095 14.6567 18.3518 14.5821C18.3942 14.5074 18.4165 14.4231 18.4167 14.3374V5.66069C18.4166 5.57458 18.3941 5.48997 18.3514 5.41517C18.3088 5.34037 18.2474 5.27794 18.1733 5.23402L10.7408 0.897353C10.6682 0.855083 10.5857 0.832933 10.5017 0.833186Z" fill="#7F7575"/>
</svg>
