<svg width="18" height="19" viewBox="0 0 18 19" fill="none" xmlns="http://www.w3.org/2000/svg">
<path d="M5.72727 0.5C2.56132 0.5 0 3.06132 0 6.22727V12.7727C0 15.9387 2.56132 18.5 5.72727 18.5H12.2727C15.4387 18.5 18 15.9387 18 12.7727V6.22727C18 3.06132 15.4387 0.5 12.2727 0.5H5.72727ZM5.72727 1.31818H12.2727C13.5049 1.31343 14.6933 1.77452 15.5998 2.60904C16.5063 3.44356 17.064 4.58985 17.161 5.81818H0.839045C0.93604 4.58985 1.49367 3.44356 2.40019 2.60904C3.30671 1.77452 4.49513 1.31343 5.72727 1.31818ZM0.818182 6.63636H17.1818V12.7727C17.1818 15.4993 14.9993 17.6818 12.2727 17.6818H5.72727C3.00068 17.6818 0.818182 15.4993 0.818182 12.7727V6.63636Z" fill="#7F7575"/>
<path d="M2.87003 9.08984C2.76153 9.08984 2.65748 9.13294 2.58076 9.20966C2.50404 9.28638 2.46094 9.39044 2.46094 9.49893C2.46094 9.60743 2.50404 9.71149 2.58076 9.78821C2.65748 9.86493 2.76153 9.90803 2.87003 9.90803H15.1428C15.2513 9.90803 15.3553 9.86493 15.432 9.78821C15.5087 9.71149 15.5518 9.60743 15.5518 9.49893C15.5518 9.39044 15.5087 9.28638 15.432 9.20966C15.3553 9.13294 15.2513 9.08984 15.1428 9.08984H2.87003ZM2.87003 12.3626C2.76153 12.3626 2.65748 12.4057 2.58076 12.4824C2.50404 12.5591 2.46094 12.6632 2.46094 12.7717C2.46094 12.8802 2.50404 12.9842 2.58076 13.0609C2.65748 13.1377 2.76153 13.1808 2.87003 13.1808H15.1428C15.2513 13.1808 15.3553 13.1377 15.432 13.0609C15.5087 12.9842 15.5518 12.8802 15.5518 12.7717C15.5518 12.6632 15.5087 12.5591 15.432 12.4824C15.3553 12.4057 15.2513 12.3626 15.1428 12.3626H2.87003Z" fill="#7F7575"/>
</svg>
