<svg width="18" height="19" viewBox="0 0 18 19" fill="none" xmlns="http://www.w3.org/2000/svg">
<path d="M14.25 8H3.75V6.5C3.75 5.10761 4.30312 3.77226 5.28769 2.78769C6.27226 1.80312 7.60761 1.25 9 1.25C10.3924 1.25 11.7277 1.80312 12.7123 2.78769C13.6969 3.77226 14.25 5.10761 14.25 6.5V8ZM5.25 6.5H12.75C12.75 5.50544 12.3549 4.55161 11.6517 3.84835C10.9484 3.14509 9.99456 2.75 9 2.75C8.00544 2.75 7.05161 3.14509 6.34835 3.84835C5.64509 4.55161 5.25 5.50544 5.25 6.5Z" fill="#6CA4FF"/>
<path d="M14.25 15.5H3.75C2.95435 15.5 2.19129 15.1839 1.62868 14.6213C1.06607 14.0587 0.75 13.2956 0.75 12.5V9.5C0.75 8.70435 1.06607 7.94129 1.62868 7.37868C2.19129 6.81607 2.95435 6.5 3.75 6.5H14.25C15.0456 6.5 15.8087 6.81607 16.3713 7.37868C16.9339 7.94129 17.25 8.70435 17.25 9.5V12.5C17.25 13.2956 16.9339 14.0587 16.3713 14.6213C15.8087 15.1839 15.0456 15.5 14.25 15.5ZM3.75 8C3.35218 8 2.97064 8.15804 2.68934 8.43934C2.40804 8.72064 2.25 9.10218 2.25 9.5V12.5C2.25 12.8978 2.40804 13.2794 2.68934 13.5607C2.97064 13.842 3.35218 14 3.75 14H14.25C14.6478 14 15.0294 13.842 15.3107 13.5607C15.592 13.2794 15.75 12.8978 15.75 12.5V9.5C15.75 9.10218 15.592 8.72064 15.3107 8.43934C15.0294 8.15804 14.6478 8 14.25 8H3.75Z" fill="#0554F1"/>
<path d="M14.25 7.25H3.75C3.15326 7.25 2.58097 7.48705 2.15901 7.90901C1.73705 8.33097 1.5 8.90326 1.5 9.5V12.5C1.5 13.0967 1.73705 13.669 2.15901 14.091C2.58097 14.5129 3.15326 14.75 3.75 14.75H14.25C14.8467 14.75 15.419 14.5129 15.841 14.091C16.2629 13.669 16.5 13.0967 16.5 12.5V9.5C16.5 8.90326 16.2629 8.33097 15.841 7.90901C15.419 7.48705 14.8467 7.25 14.25 7.25ZM4.5 11.75C4.35166 11.75 4.20666 11.706 4.08332 11.6236C3.95999 11.5412 3.86386 11.4241 3.80709 11.287C3.75032 11.15 3.73547 10.9992 3.76441 10.8537C3.79335 10.7082 3.86478 10.5746 3.96967 10.4697C4.07456 10.3648 4.2082 10.2933 4.35368 10.2644C4.49917 10.2355 4.64997 10.2503 4.78701 10.3071C4.92406 10.3639 5.04119 10.46 5.1236 10.5833C5.20601 10.7067 5.25 10.8517 5.25 11C5.25 11.1989 5.17098 11.3897 5.03033 11.5303C4.88968 11.671 4.69891 11.75 4.5 11.75ZM7.5 11.75C7.35166 11.75 7.20666 11.706 7.08332 11.6236C6.95999 11.5412 6.86386 11.4241 6.80709 11.287C6.75032 11.15 6.73547 10.9992 6.76441 10.8537C6.79335 10.7082 6.86478 10.5746 6.96967 10.4697C7.07456 10.3648 7.2082 10.2933 7.35368 10.2644C7.49917 10.2355 7.64997 10.2503 7.78701 10.3071C7.92406 10.3639 8.04119 10.46 8.1236 10.5833C8.20601 10.7067 8.25 10.8517 8.25 11C8.25 11.1989 8.17098 11.3897 8.03033 11.5303C7.88968 11.671 7.69891 11.75 7.5 11.75ZM10.5 11.75C10.3517 11.75 10.2067 11.706 10.0833 11.6236C9.95998 11.5412 9.86386 11.4241 9.80709 11.287C9.75032 11.15 9.73547 10.9992 9.76441 10.8537C9.79335 10.7082 9.86478 10.5746 9.96967 10.4697C10.0746 10.3648 10.2082 10.2933 10.3537 10.2644C10.4992 10.2355 10.65 10.2503 10.787 10.3071C10.9241 10.3639 11.0412 10.46 11.1236 10.5833C11.206 10.7067 11.25 10.8517 11.25 11C11.25 11.1989 11.171 11.3897 11.0303 11.5303C10.8897 11.671 10.6989 11.75 10.5 11.75ZM13.5 11.75C13.3517 11.75 13.2067 11.706 13.0833 11.6236C12.96 11.5412 12.8639 11.4241 12.8071 11.287C12.7503 11.15 12.7355 10.9992 12.7644 10.8537C12.7934 10.7082 12.8648 10.5746 12.9697 10.4697C13.0746 10.3648 13.2082 10.2933 13.3537 10.2644C13.4992 10.2355 13.65 10.2503 13.787 10.3071C13.9241 10.3639 14.0412 10.46 14.1236 10.5833C14.206 10.7067 14.25 10.8517 14.25 11C14.25 11.1989 14.171 11.3897 14.0303 11.5303C13.8897 11.671 13.6989 11.75 13.5 11.75Z" fill="#0554F1"/>
</svg>
