<svg width="12" height="12" viewBox="0 0 12 12" fill="none" xmlns="http://www.w3.org/2000/svg">
<path d="M11.5605 0.440156C11.2792 0.15895 10.8977 0.000976563 10.5 0.000976562C10.1023 0.000976563 9.72079 0.15895 9.4395 0.440156L3.76762 6.11353C4.2803 6.24342 4.74871 6.50851 5.124 6.88116C5.51062 7.26778 5.757 7.73953 5.88862 8.23453L11.5605 2.56116C11.6999 2.42195 11.8104 2.25664 11.8859 2.07467C11.9613 1.8927 12.0001 1.69764 12.0001 1.50066C12.0001 1.30367 11.9613 1.10862 11.8859 0.926646C11.8104 0.744677 11.6999 0.579363 11.5605 0.440156ZM4.0635 10.0627C4.20677 9.92429 4.32104 9.75877 4.39965 9.57576C4.47827 9.39276 4.51964 9.19593 4.52138 8.99676C4.52311 8.79759 4.48515 8.60007 4.40973 8.41572C4.33431 8.23138 4.22293 8.0639 4.08209 7.92306C3.94125 7.78222 3.77378 7.67085 3.58943 7.59542C3.40509 7.52 3.20757 7.48205 3.0084 7.48378C2.80923 7.48551 2.6124 7.52689 2.42939 7.6055C2.24639 7.68412 2.08087 7.79839 1.9425 7.94166L0 12.0007L4.0635 10.0627Z" fill="#7F7575"/>
</svg>
