<svg width="18" height="18" viewBox="0 0 18 18" fill="none" xmlns="http://www.w3.org/2000/svg">
<path d="M17.6134 7.77638L10.1939 0.377476C9.51277 -0.32834 9.34248 0.109753 9.34248 0.450492V3.85788L3.82041 7.94675H0.487704C-0.461023 7.94675 0.293093 8.96897 0.147135 8.7986L4.33126 12.9605L0.828272 16.4896C0.633661 16.6843 0.633661 17.0007 0.828272 17.1954C1.02288 17.3901 1.33912 17.3901 1.53374 17.1954L5.03672 13.6906L9.19652 17.8769C9.07489 17.7552 10.0723 18.4123 10.0723 17.5361V14.1774L14.1591 8.65257H17.2485C17.7594 8.62823 18.4405 8.62823 17.6134 7.77638ZM1.67969 8.89595H3.84474L9.12355 14.1774V16.3435L1.67969 8.89595ZM9.58575 13.2039L4.79346 8.40918L9.68305 4.85576L13.186 8.40918L9.58575 13.2039ZM13.9158 7.67903L10.3155 4.07693V1.9108L16.0809 7.67903H13.9158Z" fill="#7F7575"/>
</svg>
