<svg width="18" height="19" viewBox="0 0 18 19" fill="none" xmlns="http://www.w3.org/2000/svg">
<path d="M8.39704 2.26758H9.6024C9.70954 2.26758 9.76311 2.32115 9.76311 2.42829V16.5711C9.76311 16.6783 9.70954 16.7319 9.6024 16.7319H8.39704C8.2899 16.7319 8.23633 16.6783 8.23633 16.5711V2.42829C8.23633 2.32115 8.2899 2.26758 8.39704 2.26758Z" fill="#FFFAFA"/>
<path d="M2.24958 8.73633H15.7496C15.8567 8.73633 15.9103 8.7899 15.9103 8.89704V10.1024C15.9103 10.2095 15.8567 10.2631 15.7496 10.2631H2.24958C2.14244 10.2631 2.08887 10.2095 2.08887 10.1024V8.89704C2.08887 8.7899 2.14244 8.73633 2.24958 8.73633Z" fill="#FFFAFA"/>
</svg>
