<svg width="19" height="19" viewBox="0 0 19 19" fill="none" xmlns="http://www.w3.org/2000/svg">
<path d="M9.02351 2.26758H10.2289C10.336 2.26758 10.3896 2.32115 10.3896 2.42829V16.5711C10.3896 16.6783 10.336 16.7319 10.2289 16.7319H9.02351C8.91636 16.7319 8.86279 16.6783 8.86279 16.5711V2.42829C8.86279 2.32115 8.91636 2.26758 9.02351 2.26758Z" fill="#7F7575"/>
<path d="M2.87605 8.73633H16.376C16.4832 8.73633 16.5368 8.7899 16.5368 8.89704V10.1024C16.5368 10.2095 16.4832 10.2631 16.376 10.2631H2.87605C2.7689 10.2631 2.71533 10.2095 2.71533 10.1024V8.89704C2.71533 8.7899 2.7689 8.73633 2.87605 8.73633Z" fill="#7F7575"/>
</svg>
