<svg width="12" height="12" viewBox="0 0 12 12" fill="none" xmlns="http://www.w3.org/2000/svg">
<path d="M0.705882 9.6C0.282353 9.6 0 9.84 0 10.2V11.4C0 11.76 0.282353 12 0.705882 12C1.12941 12 1.41176 11.76 1.41176 11.4V10.2C1.41176 9.84 1.12941 9.6 0.705882 9.6ZM4.23529 7.2C3.81176 7.2 3.52941 7.44 3.52941 7.8V11.4C3.52941 11.76 3.81176 12 4.23529 12C4.65882 12 4.94118 11.76 4.94118 11.4V7.8C4.94118 7.44 4.65882 7.2 4.23529 7.2ZM11.2941 0C10.8706 0 10.5882 0.24 10.5882 0.6V11.4C10.5882 11.76 10.8706 12 11.2941 12C11.7176 12 12 11.76 12 11.4V0.6C12 0.24 11.7176 0 11.2941 0ZM7.76471 4.2C7.34118 4.2 7.05882 4.44 7.05882 4.8V11.4C7.05882 11.76 7.34118 12 7.76471 12C8.18824 12 8.47059 11.76 8.47059 11.4V4.8C8.47059 4.44 8.18824 4.2 7.76471 4.2Z" fill="#7F7575"/>
</svg>
