<svg width="14" height="18" viewBox="0 0 14 18" fill="none" xmlns="http://www.w3.org/2000/svg">
<path d="M5.11741 12.3561C6.37712 12.2546 7.64262 12.2546 8.90233 12.3561C9.58831 12.3961 10.271 12.4819 10.9462 12.613C12.4072 12.9088 13.361 13.3915 13.7697 14.1699C14.0768 14.7775 14.0768 15.5008 13.7697 16.1083C13.361 16.8868 12.445 17.4006 10.9311 17.6653C10.2564 17.8013 9.57355 17.8897 8.88719 17.9299C8.25132 18 7.61546 18 6.97202 18H5.81383C5.5716 17.9689 5.33693 17.9533 5.10984 17.9533C4.42346 17.918 3.74042 17.8321 3.06598 17.6964C1.605 17.4161 0.651195 16.9179 0.242423 16.1395C0.0846223 15.8379 0.00142982 15.501 9.11906e-05 15.1586C-0.00310127 14.814 0.0775753 14.4742 0.234853 14.1699C0.636055 13.3915 1.58986 12.8855 3.06598 12.613C3.74339 12.48 4.42876 12.3942 5.11741 12.3561ZM7.0023 0.5C9.53999 0.5 11.5972 2.61559 11.5972 5.22531C11.5972 7.83503 9.53999 9.95062 7.0023 9.95062C4.46461 9.95062 2.4074 7.83503 2.4074 5.22531C2.4074 2.61559 4.46461 0.5 7.0023 0.5Z" fill="#7F7575"/>
</svg>
