<svg width="12" height="12" viewBox="0 0 12 12" fill="none" xmlns="http://www.w3.org/2000/svg">
<g clip-path="url(#clip0_1991_55118)">
<path d="M12 5.99443C12 9.312 9.312 12 6.00557 12C2.688 12 0 9.312 0 5.99443C0 2.688 2.688 0 6.00557 0C9.312 0 12 2.688 12 5.99443Z" fill="#0C0C0C"/>
<path d="M6.00019 8.78099C5.85001 8.7815 5.70122 8.75217 5.56247 8.69472C5.42371 8.63726 5.29776 8.55281 5.1919 8.44627L3.54919 6.80399C3.33508 6.58939 3.21484 6.29863 3.21484 5.99549C3.21484 5.69235 3.33508 5.40159 3.54919 5.18699L5.1919 3.5447C5.62347 3.1127 6.37733 3.1127 6.80847 3.5447L8.45119 5.18699C8.66529 5.40159 8.78553 5.69235 8.78553 5.99549C8.78553 6.29863 8.66529 6.58939 8.45119 6.80399L6.80847 8.44627C6.70262 8.55281 6.57666 8.63726 6.43791 8.69472C6.29915 8.75217 6.15037 8.7815 6.00019 8.78099ZM6.00019 3.63813C5.80947 3.63813 5.6299 3.71227 5.4949 3.84727L3.85219 5.48956C3.71832 5.62373 3.64315 5.80553 3.64315 5.99506C3.64315 6.18459 3.71832 6.36639 3.85219 6.50056L5.4949 8.14285C5.7649 8.41327 6.2359 8.41327 6.50547 8.14285L8.14819 6.50056C8.28205 6.36639 8.35723 6.18459 8.35723 5.99506C8.35723 5.80553 8.28205 5.62373 8.14819 5.48956L6.50547 3.84727C6.43925 3.78075 6.3605 3.72801 6.27377 3.69211C6.18704 3.65622 6.09405 3.63787 6.00019 3.63813Z" fill="white"/>
<path d="M5.99987 6.42327C5.94304 6.42327 5.88853 6.40069 5.84835 6.36051C5.80816 6.32032 5.78558 6.26582 5.78558 6.20898V4.92327C5.78558 4.86644 5.80816 4.81193 5.84835 4.77175C5.88853 4.73156 5.94304 4.70898 5.99987 4.70898C6.0567 4.70898 6.11121 4.73156 6.15139 4.77175C6.19158 4.81193 6.21416 4.86644 6.21416 4.92327V6.20898C6.21416 6.26582 6.19158 6.32032 6.15139 6.36051C6.11121 6.40069 6.0567 6.42327 5.99987 6.42327ZM5.99944 7.28041C5.96944 7.28041 5.94373 7.27613 5.91801 7.26327C5.89139 7.2539 5.86772 7.23763 5.84944 7.21613C5.80659 7.17756 5.78516 7.12184 5.78516 7.06613C5.78516 7.01041 5.80659 6.9547 5.84944 6.9157C5.89047 6.87666 5.94495 6.85488 6.00158 6.85488C6.05822 6.85488 6.1127 6.87666 6.15373 6.9157C6.1923 6.9547 6.21373 7.01041 6.21373 7.06613C6.21373 7.12184 6.1923 7.17756 6.15373 7.21613C6.1323 7.23756 6.10658 7.2547 6.08087 7.26327C6.05555 7.2756 6.02758 7.28149 5.99944 7.28041Z" fill="white"/>
</g>
<defs>
<clipPath id="clip0_1991_55118">
<rect width="12" height="12" fill="white"/>
</clipPath>
</defs>
</svg>
