<svg width="15" height="15" viewBox="0 0 15 15" fill="none" xmlns="http://www.w3.org/2000/svg">
<circle cx="7.5" cy="7.5" r="7.5" fill="#34353C"/>
<path d="M7.19754 3.88477H7.80022C7.85379 3.88477 7.88058 3.91155 7.88058 3.96512V11.0366C7.88058 11.0901 7.85379 11.1169 7.80022 11.1169H7.19754C7.14397 11.1169 7.11719 11.0901 7.11719 11.0366V3.96512C7.11719 3.91155 7.14397 3.88477 7.19754 3.88477Z" fill="white"/>
<path d="M4.12333 7.11914H10.8733C10.9269 7.11914 10.9537 7.14593 10.9537 7.1995V7.80218C10.9537 7.85575 10.9269 7.88253 10.8733 7.88253H4.12333C4.06975 7.88253 4.04297 7.85575 4.04297 7.80218V7.1995C4.04297 7.14593 4.06975 7.11914 4.12333 7.11914Z" fill="white"/>
</svg>
