<svg width="20" height="21" viewBox="0 0 20 21" fill="none" xmlns="http://www.w3.org/2000/svg">
<path d="M13.4946 16.6191L7.22082 16.6193C6.9617 16.6191 6.72677 16.5138 6.55616 16.3432C6.50008 16.2871 6.45464 16.222 6.41371 16.1534C6.55323 16.2361 6.71402 16.2863 6.88915 16.2866L13.1629 16.2863C13.6828 16.2869 14.1035 15.8662 14.1021 15.3471L14.1016 5.69687C14.1016 5.51987 14.0469 5.35191 13.956 5.20521L14.032 5.25837C14.2842 5.4351 14.4341 5.72212 14.4338 6.02907L14.4338 15.6793C14.4343 16.1986 14.0136 16.6193 13.4946 16.6191ZM12.7858 15.9103L6.51204 15.9105C6.25292 15.9103 6.01799 15.805 5.84738 15.6344C5.67729 15.4643 5.57231 15.2297 5.57178 14.9703L5.57231 5.32002C5.57231 5.01281 5.7222 4.72525 5.97414 4.54932L9.11064 2.36106C9.43353 2.13596 9.863 2.13596 10.1859 2.36106L13.3227 4.54959C13.5749 4.72632 13.7248 5.01334 13.7245 5.32029L13.7245 14.9705C13.7258 15.4901 13.3051 15.9108 12.7858 15.9103ZM10.6042 4.92404C10.6082 4.39651 10.1835 3.96545 9.65598 3.96146C9.12844 3.95747 8.69765 4.38242 8.69366 4.90996C8.68994 5.43722 9.11409 5.86828 9.64189 5.87201C10.1692 5.87573 10.6002 5.45104 10.6042 4.92404Z" fill="#FA4F57"/>
</svg>
