<svg width="18" height="19" viewBox="0 0 18 19" fill="none" xmlns="http://www.w3.org/2000/svg">
<path d="M9 1.0625V9.5H17.4375C17.4375 7.26224 16.5486 5.11612 14.9662 3.53379C13.3839 1.95145 11.2378 1.0625 9 1.0625Z" fill="#9D9EA0"/>
<path d="M8.99955 9.5V1.0625C7.61203 1.06257 6.24594 1.40483 5.02228 2.05896C3.79862 2.71308 2.75517 3.65888 1.98433 4.81259C1.2135 5.9663 0.73909 7.2923 0.603115 8.67314C0.467141 10.054 0.673802 11.4471 1.20479 12.729C1.73579 14.0109 2.57472 15.142 3.64729 16.0223C4.71985 16.9025 5.99295 17.5046 7.3538 17.7754C8.71466 18.0461 10.1213 17.977 11.4491 17.5742C12.7769 17.1715 13.9848 16.4475 14.966 15.4664L14.9621 15.4625L8.99955 9.5Z" fill="#7F7575"/>
<path d="M17.4375 9.5H9L14.9625 15.4625L14.9664 15.4664C15.751 14.6837 16.3732 13.7537 16.7972 12.7298C17.2213 11.7058 17.4389 10.6082 17.4375 9.5Z" fill="#5A5C5E"/>
</svg>
