<svg width="18" height="19" viewBox="0 0 18 19" fill="none" xmlns="http://www.w3.org/2000/svg">
<path d="M9 1.0625V9.5H17.4375C17.4375 7.26224 16.5486 5.11612 14.9662 3.53379C13.3839 1.95145 11.2378 1.0625 9 1.0625Z" fill="#E7E6E6"/>
<path d="M9.00004 9.5V1.0625C7.61252 1.06257 6.24643 1.40483 5.02277 2.05896C3.79911 2.71308 2.75565 3.65888 1.98482 4.81259C1.21399 5.9663 0.739578 7.2923 0.603603 8.67314C0.467629 10.054 0.67429 11.4471 1.20528 12.729C1.73627 14.0109 2.57521 15.142 3.64777 16.0223C4.72034 16.9025 5.99343 17.5046 7.35429 17.7754C8.71515 18.0461 10.1218 17.977 11.4496 17.5742C12.7773 17.1715 13.9853 16.4475 14.9665 15.4664L14.9625 15.4625L9.00004 9.5Z" fill="#E7E6E6"/>
<path d="M17.4375 9.5H9L14.9625 15.4625L14.9664 15.4664C15.751 14.6837 16.3732 13.7537 16.7972 12.7298C17.2213 11.7058 17.4389 10.6082 17.4375 9.5Z" fill="#E7E6E6"/>
</svg>
