<svg width="5" height="9" viewBox="0 0 5 9" fill="none" xmlns="http://www.w3.org/2000/svg">
<path d="M0.000143668 8.66899C-0.00119095 8.71281 0.00678477 8.75644 0.0235805 8.79718C0.0403762 8.83792 0.065637 8.87491 0.097809 8.90589C0.160317 8.96615 0.245085 9 0.333472 9C0.421859 9 0.506627 8.96615 0.569135 8.90589L4.90241 4.72725C4.9649 4.66698 5 4.58523 5 4.5C5 4.41477 4.9649 4.33302 4.90241 4.27275L0.569135 0.0941105C0.506627 0.0338516 0.421859 0 0.333472 0C0.245085 0 0.160317 0.0338516 0.097809 0.0941105C0.0353195 0.154388 0.000214874 0.236132 0.000214874 0.321364C0.000214874 0.406597 0.0353195 0.48834 0.097809 0.548618L4.19542 4.5L0.097809 8.45138C0.0376071 8.50935 0.00266632 8.58731 0.000143668 8.66931L0.000143668 8.66899Z" fill="#7F7575"/>
</svg>
