<svg width="12" height="13" viewBox="0 0 12 13" fill="none" xmlns="http://www.w3.org/2000/svg">
<path fill-rule="evenodd" clip-rule="evenodd" d="M2.57989 7.5668C2.68107 7.47285 2.83925 7.47871 2.9332 7.57989L6 10.8826L9.0668 7.57989C9.16075 7.47871 9.31894 7.47285 9.42011 7.5668C9.52129 7.66075 9.52715 7.81893 9.4332 7.92011L6.1832 11.4201C6.1359 11.4711 6.06952 11.5 6 11.5C5.93048 11.5 5.86411 11.4711 5.8168 11.4201L2.5668 7.92011C2.47285 7.81893 2.47871 7.66075 2.57989 7.5668Z" fill="#7F7575"/>
<path fill-rule="evenodd" clip-rule="evenodd" d="M6 11C5.86193 11 5.75 10.8881 5.75 10.75L5.75 1.75C5.75 1.61193 5.86193 1.5 6 1.5C6.13807 1.5 6.25 1.61193 6.25 1.75L6.25 10.75C6.25 10.8881 6.13807 11 6 11Z" fill="#7F7575"/>
</svg>
