<svg width="21" height="20" viewBox="0 0 21 20" fill="none" xmlns="http://www.w3.org/2000/svg">
<path d="M10.8125 0C6.61969 0 2.375 0.85875 2.375 2.5V17.5C2.375 19.1412 6.61969 20 10.8125 20C15.0053 20 19.25 19.1412 19.25 17.5V2.5C19.25 0.85875 15.0053 0 10.8125 0ZM10.8125 19.375C5.97219 19.375 3 18.2828 3 17.5V13.5078C4.32938 14.4906 7.585 15 10.8125 15C14.04 15 17.2956 14.4906 18.625 13.5078V17.5C18.625 18.2828 15.6528 19.375 10.8125 19.375ZM10.8125 14.375C5.97219 14.375 3 13.2828 3 12.5V8.50781C4.32938 9.49063 7.585 10 10.8125 10C14.04 10 17.2956 9.49063 18.625 8.50781V12.5C18.625 13.2828 15.6528 14.375 10.8125 14.375ZM10.8125 9.375C5.97219 9.375 3 8.28281 3 7.5V3.50781C4.32938 4.49063 7.585 5 10.8125 5C14.04 5 17.2956 4.49063 18.625 3.50781V7.5C18.625 8.28281 15.6528 9.375 10.8125 9.375ZM10.8125 4.375C5.97219 4.375 3 3.28281 3 2.5C3 1.71719 5.97219 0.625 10.8125 0.625C15.6528 0.625 18.625 1.71719 18.625 2.5C18.625 3.28281 15.6528 4.375 10.8125 4.375Z" fill="#E7E6E6"/>
</svg>
