<svg width="20" height="21" viewBox="0 0 20 21" fill="none" xmlns="http://www.w3.org/2000/svg">
<path d="M16.25 13.6896C15.05 13.6896 13.975 14.2117 13.3 15.0062L7.225 11.8053C7.6 10.9654 7.6 10.0346 7.225 9.19466L13.3 5.99376C13.975 6.78831 15.05 7.31044 16.25 7.31044C18.325 7.31044 20 5.78944 20 3.90522C20 2.021 18.325 0.5 16.25 0.5C14.175 0.5 12.5 2.021 12.5 3.90522C12.5 4.35925 12.6 4.81328 12.775 5.19921L6.7 8.42281C6 7.62826 4.95 7.10613 3.75 7.10613C1.675 7.10613 0 8.62713 0 10.5114C0 12.3956 1.675 13.9166 3.75 13.9166C4.95 13.9166 6.025 13.3944 6.7 12.5999L12.775 15.8008C12.6 16.1867 12.5 16.6407 12.5 17.0948C12.5 18.979 14.175 20.5 16.25 20.5C18.325 20.5 20 18.979 20 17.0948C20 15.2106 18.325 13.6896 16.25 13.6896ZM16.25 1.43076C17.775 1.43076 19 2.54313 19 3.92792C19 5.31271 17.775 6.42509 16.25 6.42509C14.725 6.42509 13.5 5.31271 13.5 3.92792C13.5 2.54313 14.725 1.43076 16.25 1.43076ZM3.75 13.0085C2.225 13.0085 1 11.8961 1 10.5114C1 9.12656 2.225 8.01419 3.75 8.01419C5.275 8.01419 6.5 9.12656 6.5 10.5114C6.5 11.8961 5.275 13.0085 3.75 13.0085ZM16.25 19.5919C14.725 19.5919 13.5 18.4796 13.5 17.0948C13.5 15.71 14.725 14.5976 16.25 14.5976C17.775 14.5976 19 15.71 19 17.0948C19 18.4796 17.775 19.5919 16.25 19.5919Z" fill="#7F7575"/>
</svg>
