<svg width="14" height="13" viewBox="0 0 14 13" fill="none" xmlns="http://www.w3.org/2000/svg">
<path d="M10.8562 11.2296L10.8562 11.2296C10.9104 11.5674 10.7826 11.9164 10.5004 12.1227C10.2241 12.3343 9.85835 12.3576 9.55526 12.1899C9.55507 12.1898 9.55487 12.1897 9.55468 12.1896L7.11176 10.8483C7.04981 10.8162 7.00102 10.8047 6.96583 10.8047H6.8407C6.83955 10.8051 6.83822 10.8056 6.83668 10.8062C6.827 10.8099 6.81552 10.8153 6.79605 10.8251L4.35331 12.1724L4.34859 12.175L4.34857 12.175C4.17557 12.2661 3.97566 12.3009 3.77996 12.2666L3.77075 12.265L3.77078 12.2648C3.28685 12.1629 2.98678 11.6918 3.06327 11.2119L3.0638 11.2086L3.06382 11.2086L3.55511 8.34946C3.57403 8.22732 3.53554 8.10529 3.45227 8.01637L1.45951 5.98299L1.45649 5.97992L1.45652 5.97989C1.22351 5.73459 1.13512 5.37883 1.24554 5.04696C1.34771 4.72643 1.61501 4.48249 1.95221 4.42417L1.95757 4.42324L1.95758 4.4233L4.70296 4.00402L4.71422 4.0023L4.71424 4.00253C4.82408 3.99036 4.92576 3.92038 4.98075 3.80546L6.18986 1.19577L6.19097 1.19338L6.19098 1.19338C6.23342 1.10403 6.29087 1.0266 6.35364 0.962144L6.36397 0.951545L6.37536 0.94211L6.40569 0.917001C6.45138 0.866576 6.50277 0.831618 6.52658 0.815424C6.52889 0.813852 6.53094 0.812457 6.5327 0.811241L6.5596 0.792673L6.59008 0.780895L6.64509 0.759644L6.73388 0.721155L6.78645 0.698366H6.84375H7.07631H7.09157L7.10673 0.700047C7.41529 0.734239 7.67716 0.92896 7.81054 1.20152L7.8123 1.20513L7.81228 1.20514L9.03803 3.80515L9.03909 3.80738L9.03908 3.80739C9.08879 3.91532 9.18242 3.98495 9.29137 4.00448L12.0331 4.4232C12.0332 4.42321 12.0333 4.42323 12.0334 4.42324L12.0337 4.4233L10.8562 11.2296ZM10.8562 11.2296L10.8557 11.2267M10.8562 11.2296L10.8557 11.2267M10.8557 11.2267L10.3649 8.36733C10.3649 8.36709 10.3648 8.36685 10.3648 8.36662M10.8557 11.2267L10.3648 8.36662M10.3648 8.36662C10.3454 8.24788 10.3853 8.12358 10.4645 8.04302C10.4647 8.04281 10.4649 8.04259 10.4651 8.04238L12.5283 5.98646L10.3648 8.36662Z" stroke="#7F7575" stroke-width="0.552486"/>
</svg>
