<svg width="9" height="9" viewBox="0 0 9 9" fill="none" xmlns="http://www.w3.org/2000/svg">
<path d="M0.285232 6.81648C0.00908946 7.09262 0.00908934 7.54034 0.285232 7.81648C0.561374 8.09262 1.00909 8.09262 1.28523 7.81648L4.04304 5.05867L6.80086 7.81648C7.077 8.09262 7.52471 8.09262 7.80086 7.81648C8.077 7.54034 8.077 7.09262 7.80086 6.81648L5.04304 4.05867L7.80086 1.30086C8.077 1.02471 8.077 0.576999 7.80086 0.300857C7.52471 0.0247143 7.077 0.0247145 6.80086 0.300857L4.04304 3.05867L1.28523 0.300857C1.00909 0.0247145 0.561374 0.0247143 0.285232 0.300857C0.00908934 0.576999 0.00908946 1.02471 0.285232 1.30086L3.04304 4.05867L0.285232 6.81648Z" fill="#ECEBEB"/>
</svg>
