<svg width="20" height="21" viewBox="0 0 20 21" fill="none" xmlns="http://www.w3.org/2000/svg">
<g clip-path="url(#clip0_404_20134)">
<path d="M13.4907 16.62L7.21691 16.6203C6.9578 16.62 6.72287 16.5148 6.55225 16.3442C6.49617 16.2881 6.45073 16.223 6.4098 16.1544C6.54933 16.2371 6.71011 16.2873 6.88525 16.2876L13.159 16.2873C13.6789 16.2878 14.0996 15.8671 14.0982 15.3481L14.0977 5.69785C14.0977 5.52085 14.0429 5.35289 13.9521 5.20619L14.0281 5.25934C14.2803 5.43607 14.4302 5.72309 14.4299 6.03005L14.4299 15.6803C14.4304 16.1996 14.0097 16.6203 13.4907 16.62ZM12.7819 15.9113L6.50813 15.9115C6.24902 15.9113 6.01409 15.806 5.84347 15.6354C5.67338 15.4653 5.56841 15.2306 5.56788 14.9713L5.56841 5.321C5.56841 5.01378 5.7183 4.72623 5.97024 4.5503L9.10673 2.36203C9.42963 2.13693 9.8591 2.13693 10.182 2.36203L13.3188 4.55056C13.571 4.72729 13.7208 5.01431 13.7206 5.32126L13.7206 14.9715C13.7219 15.4911 13.3012 15.9118 12.7819 15.9113ZM10.6003 4.92502C10.6043 4.39748 10.1796 3.96642 9.65207 3.96244C9.12454 3.95845 8.69374 4.3834 8.68975 4.91093C8.68603 5.4382 9.11019 5.86926 9.63798 5.87298C10.1653 5.8767 10.5963 5.45202 10.6003 4.92502Z" fill="#055FFC"/>
</g>
<defs>
<clipPath id="clip0_404_20134">
<rect width="14.1421" height="14.1421" fill="white" transform="translate(10 0.5) rotate(45)"/>
</clipPath>
</defs>
</svg>
