<svg width="18" height="19" viewBox="0 0 18 19" fill="none" xmlns="http://www.w3.org/2000/svg">
<g clip-path="url(#clip0_1_28985)">
<path d="M15.1963 0.867188H2.80319C1.45783 0.867188 0.367188 1.95783 0.367188 3.30319V15.6963C0.367188 17.0417 1.45783 18.1323 2.80319 18.1323H15.1963C16.5417 18.1323 17.6323 17.0417 17.6323 15.6963V3.30319C17.6323 1.95783 16.5417 0.867188 15.1963 0.867188Z" fill="#E7E6E6" stroke="#7F7575" stroke-miterlimit="10"/>
<path d="M14.0247 5.1875H3.97568C3.59216 5.1875 3.28125 5.49841 3.28125 5.88193V14.6119C3.28125 14.9954 3.59216 15.3063 3.97568 15.3063H14.0247C14.4082 15.3063 14.7191 14.9954 14.7191 14.6119V5.88193C14.7191 5.49841 14.4082 5.1875 14.0247 5.1875Z" fill="#E7E6E6" stroke="#7F7575" stroke-linecap="round" stroke-linejoin="round"/>
<path d="M5.04688 3.86523V6.12488V3.86523ZM9.00033 3.86523V6.12488V3.86523ZM12.9501 3.86523V6.12488V3.86523ZM6.06096 10.1628L8.07443 12.1763L11.936 8.31471" fill="#E7E6E6"/>
<path d="M5.04688 3.86523V6.12488M9.00033 3.86523V6.12488M12.9501 3.86523V6.12488M6.06096 10.1628L8.07443 12.1763L11.936 8.31471" stroke="#7F7575" stroke-linecap="round" stroke-linejoin="round"/>
</g>
<defs>
<clipPath id="clip0_1_28985">
<rect width="18" height="18" fill="white" transform="translate(0 0.5)"/>
</clipPath>
</defs>
</svg>
