<svg width="21" height="20" viewBox="0 0 21 20" fill="none" xmlns="http://www.w3.org/2000/svg">
<path d="M17.0202 10.3536C17.2155 10.1583 17.2155 9.84171 17.0202 9.64645L13.8382 6.46447C13.643 6.2692 13.3264 6.2692 13.1311 6.46447C12.9359 6.65973 12.9359 6.97631 13.1311 7.17157L15.9596 10L13.1311 12.8284C12.9359 13.0237 12.9359 13.3403 13.1311 13.5355C13.3264 13.7308 13.643 13.7308 13.8382 13.5355L17.0202 10.3536ZM7.28523e-08 10.5L16.6667 10.5L16.6667 9.5L-7.28523e-08 9.5L7.28523e-08 10.5Z" fill="#7F7575"/>
<line x1="20.5" y1="4.3711e-08" x2="20.5" y2="20" stroke="#7F7575"/>
</svg>
