<svg width="20" height="20" viewBox="0 0 20 20" fill="none" xmlns="http://www.w3.org/2000/svg">
<g clip-path="url(#clip0_2403_70358)">
<path d="M17.5984 0.400391H2.39844C1.29564 0.400391 0.398438 1.29759 0.398438 2.40039V17.6004C0.398438 18.7032 1.29564 19.6004 2.39844 19.6004H17.5984C18.7012 19.6004 19.5984 18.7032 19.5984 17.6004V2.40039C19.5984 1.29759 18.7012 0.400391 17.5984 0.400391ZM18.7984 17.6004C18.7984 18.262 18.26 18.8004 17.5984 18.8004H2.39844C1.73684 18.8004 1.19844 18.262 1.19844 17.6004V2.40039C1.19844 1.73879 1.73684 1.20039 2.39844 1.20039H17.5984C18.26 1.20039 18.7984 1.73879 18.7984 2.40039V17.6004Z" fill="#ECEBEB" fill-opacity="0.7"/>
<path d="M6.45978 14.7487L3.63476 11.9643L3 12.5899L6.45978 16L18 4.62564L17.3652 4L6.45978 14.7487Z" fill="white"/>
</g>
<defs>
<clipPath id="clip0_2403_70358">
<rect width="20" height="20" fill="white"/>
</clipPath>
</defs>
</svg>
