<svg width="12" height="12" viewBox="0 0 12 12" fill="none" xmlns="http://www.w3.org/2000/svg">
<path fill-rule="evenodd" clip-rule="evenodd" d="M6 1.5C3.51472 1.5 1.5 3.51472 1.5 6C1.5 8.48528 3.51472 10.5 6 10.5C8.48528 10.5 10.5 8.48528 10.5 6C10.5 3.51472 8.48528 1.5 6 1.5ZM1 6C1 3.23858 3.23858 1 6 1C8.76142 1 11 3.23858 11 6C11 8.76142 8.76142 11 6 11C3.23858 11 1 8.76142 1 6Z" fill="#7F7575"/>
<path fill-rule="evenodd" clip-rule="evenodd" d="M6 3.5C4.89543 3.5 4 4.39543 4 5.5C4 6.60457 4.89543 7.5 6 7.5C7.10457 7.5 8 6.60457 8 5.5C8 4.39543 7.10457 3.5 6 3.5ZM3.5 5.5C3.5 4.11929 4.61929 3 6 3C7.38071 3 8.5 4.11929 8.5 5.5C8.5 6.88071 7.38071 8 6 8C4.61929 8 3.5 6.88071 3.5 5.5Z" fill="#7F7575"/>
<path fill-rule="evenodd" clip-rule="evenodd" d="M5.99975 8C4.72445 8 3.58599 8.59737 2.8566 9.5291L2.46289 9.2209C3.2835 8.17263 4.56504 7.5 5.99975 7.5C7.39724 7.5 8.64693 8.13559 9.47255 9.13586L9.08694 9.45414C8.35256 8.56441 7.24225 8 5.99975 8Z" fill="#7F7575"/>
</svg>
