<svg width="12" height="12" viewBox="0 0 12 12" fill="none" xmlns="http://www.w3.org/2000/svg">
<path d="M1.27273 2.625C0.945455 2.625 0.6 2.475 0.363636 2.23125C0.127273 1.9875 0 1.65 0 1.3125C0 0.975 0.145455 0.6375 0.363636 0.375C0.6 0.13125 0.927273 0 1.27273 0C1.6 0 1.92727 0.15 2.16364 0.375C2.4 0.61875 2.54545 0.95625 2.54545 1.3125C2.54545 1.65 2.4 1.9875 2.16364 2.23125C1.92727 2.475 1.6 2.625 1.27273 2.625ZM6.89091 2.23125C7.12727 1.9875 7.27273 1.65 7.27273 1.3125C7.27273 0.975 7.12727 0.6375 6.89091 0.375C6.65455 0.13125 6.32727 0 6 0C5.67273 0 5.32727 0.15 5.09091 0.375C4.85455 0.61875 4.72727 0.95625 4.72727 1.3125C4.72727 1.65 4.87273 1.9875 5.09091 2.23125C5.32727 2.475 5.65455 2.625 6 2.625C6.32727 2.625 6.65455 2.475 6.89091 2.23125ZM11.6182 2.23125C11.8545 1.9875 12 1.65 12 1.3125C12 0.975 11.8545 0.6375 11.6182 0.375C11.3818 0.13125 11.0545 0 10.7273 0C10.4 0 10.0545 0.15 9.81818 0.375C9.58182 0.61875 9.45455 0.95625 9.45455 1.3125C9.45455 1.65 9.6 1.9875 9.81818 2.23125C10.0545 2.475 10.3818 2.625 10.7273 2.625C11.0545 2.625 11.3818 2.475 11.6182 2.23125ZM2.16364 6.91875C2.4 6.675 2.54545 6.3375 2.54545 6C2.54545 5.6625 2.4 5.325 2.16364 5.0625C1.92727 4.81875 1.6 4.6875 1.27273 4.6875C0.945455 4.6875 0.6 4.8375 0.363636 5.0625C0.127273 5.30625 0 5.64375 0 6C0 6.3375 0.145455 6.675 0.363636 6.91875C0.6 7.1625 0.927273 7.3125 1.27273 7.3125C1.6 7.3125 1.92727 7.1625 2.16364 6.91875ZM6.89091 6.91875C7.12727 6.675 7.27273 6.3375 7.27273 6C7.27273 5.6625 7.12727 5.325 6.89091 5.0625C6.65455 4.81875 6.32727 4.6875 6 4.6875C5.67273 4.6875 5.32727 4.8375 5.09091 5.0625C4.85455 5.30625 4.72727 5.64375 4.72727 6C4.72727 6.3375 4.87273 6.675 5.09091 6.91875C5.32727 7.1625 5.65455 7.3125 6 7.3125C6.32727 7.3125 6.65455 7.1625 6.89091 6.91875ZM11.6182 6.91875C11.8545 6.675 12 6.3375 12 6C12 5.6625 11.8545 5.325 11.6182 5.0625C11.3818 4.81875 11.0545 4.6875 10.7273 4.6875C10.4 4.6875 10.0545 4.8375 9.81818 5.0625C9.58182 5.30625 9.45455 5.64375 9.45455 6C9.45455 6.3375 9.6 6.675 9.81818 6.91875C10.0545 7.1625 10.3818 7.3125 10.7273 7.3125C11.0545 7.3125 11.3818 7.1625 11.6182 6.91875ZM2.16364 11.6063C2.4 11.3625 2.54545 11.025 2.54545 10.6875C2.54545 10.35 2.4 10.0125 2.16364 9.75C1.92727 9.50625 1.6 9.375 1.27273 9.375C0.945455 9.375 0.6 9.525 0.363636 9.75C0.127273 9.99375 0 10.3313 0 10.6875C0 11.025 0.145455 11.3625 0.363636 11.6063C0.6 11.85 0.927273 12 1.27273 12C1.6 12 1.92727 11.85 2.16364 11.6063ZM6.89091 11.6063C7.12727 11.3625 7.27273 11.025 7.27273 10.6875C7.27273 10.35 7.12727 10.0125 6.89091 9.75C6.65455 9.50625 6.32727 9.375 6 9.375C5.67273 9.375 5.32727 9.525 5.09091 9.75C4.85455 9.99375 4.72727 10.3313 4.72727 10.6875C4.72727 11.025 4.87273 11.3625 5.09091 11.6063C5.32727 11.85 5.65455 12 6 12C6.32727 12 6.65455 11.85 6.89091 11.6063ZM11.6182 11.6063C11.8545 11.3625 12 11.025 12 10.6875C12 10.35 11.8545 10.0125 11.6182 9.75C11.3818 9.50625 11.0545 9.375 10.7273 9.375C10.4 9.375 10.0545 9.525 9.81818 9.75C9.58182 9.99375 9.45455 10.3313 9.45455 10.6875C9.45455 11.025 9.6 11.3625 9.81818 11.6063C10.0545 11.85 10.3818 12 10.7273 12C11.0545 12 11.3818 11.85 11.6182 11.6063Z" fill="#7F7575"/>
</svg>
