<svg width="20" height="21" viewBox="0 0 20 21" fill="none" xmlns="http://www.w3.org/2000/svg">
<path d="M2.45231 12.3442C2.42742 12.0738 2.41465 11.8023 2.41406 11.5307C2.41406 7.83057 4.81167 4.72284 8.05973 3.82422" stroke="#7F7575" stroke-width="2" stroke-miterlimit="10" stroke-linecap="round" stroke-linejoin="round"/>
<path d="M3.83594 16.177C5.21136 18.1902 7.45635 19.5007 9.99757 19.5007C12.5388 19.5007 14.7883 18.1902 16.1547 16.1719" stroke="#7F7575" stroke-width="2" stroke-miterlimit="10" stroke-linecap="round" stroke-linejoin="round"/>
<path d="M11.9375 3.82422C15.1856 4.72284 17.5783 7.83057 17.5783 11.5307C17.5783 11.8066 17.564 12.0781 17.5404 12.3442" stroke="#7F7575" stroke-width="2" stroke-miterlimit="10" stroke-linecap="round" stroke-linejoin="round"/>
<path d="M9.99563 5.62112C11.0784 5.62112 11.9561 4.69858 11.9561 3.56056C11.9561 2.42254 11.0784 1.5 9.99563 1.5C8.91289 1.5 8.03516 2.42254 8.03516 3.56056C8.03516 4.69858 8.91289 5.62112 9.99563 5.62112Z" stroke="#7F7575" stroke-width="2" stroke-miterlimit="10" stroke-linecap="round" stroke-linejoin="round"/>
<path d="M17.0386 16.3965C18.1213 16.3965 18.9991 15.474 18.9991 14.3359C18.9991 13.1979 18.1213 12.2754 17.0386 12.2754C15.9559 12.2754 15.0781 13.1979 15.0781 14.3359C15.0781 15.474 15.9559 16.3965 17.0386 16.3965Z" stroke="#7F7575" stroke-width="2" stroke-miterlimit="10" stroke-linecap="round" stroke-linejoin="round"/>
<path d="M2.96048 16.3965C4.04322 16.3965 4.92096 15.474 4.92096 14.3359C4.92096 13.1979 4.04322 12.2754 2.96048 12.2754C1.87774 12.2754 1 13.1979 1 14.3359C1 15.474 1.87774 16.3965 2.96048 16.3965Z" stroke="#7F7575" stroke-width="2" stroke-miterlimit="10" stroke-linecap="round" stroke-linejoin="round"/>
</svg>
